<svg width="1920" height="1080" viewBox="0 0 1920 1080" fill="none" xmlns="http://www.w3.org/2000/svg">
<g clip-path="url(#clip0_84_1147)">
<rect width="1920" height="1080" fill="white"/>
<rect width="1920" height="1024" fill="url(#paint0_linear_84_1147)"/>
<rect y="930" width="1920" height="150" fill="#385237"/>
<rect y="819" width="1920" height="111" fill="#5A7258"/>
<rect y="720" width="1920" height="99" fill="#849284"/>
<rect y="572" width="1920" height="148" fill="#CAD0C2"/>
<rect y="174" width="1920" height="108" fill="#447040"/>
<rect y="282" width="1920" height="54" fill="#849284"/>
<rect width="1920" height="174" fill="#385237"/>
</g>
<g clip-path="url(#clip1_84_1147)">
<rect width="1441" height="1024" transform="translate(240)" fill="white"/>
<rect x="240" width="1442" height="1036" fill="url(#paint1_linear_84_1147)"/>
<path fill-rule="evenodd" clip-rule="evenodd" d="M1682 572.741C1508.69 440.296 1281.59 356.594 1089.2 499C868.083 635.588 593.523 604.688 403.694 583.324C268.994 568.164 176.958 557.806 176.958 615.5C176.958 626.747 176.476 639.316 175.954 652.921C171.882 759.159 165.391 928.517 367.004 1024H1682V572.741Z" fill="url(#paint2_linear_84_1147)"/>
<path fill-rule="evenodd" clip-rule="evenodd" d="M1682 720.384C1637.43 704.228 1560.41 701.288 1465.24 697.655C1297.7 691.259 1073.89 682.716 871.814 596.144C706.065 512.729 451.644 598.958 240 721.096V1024H1436.42C1548.33 966.108 1634.27 902.771 1682 848.6V720.384Z" fill="#849284"/>
<path d="M1378 6H1450L1598.5 1029H1450L1378 6Z" fill="#9BAE9B"/>
<path d="M291.5 0H351L410.5 1023H291.5V0Z" fill="#9BAE9B"/>
<path fill-rule="evenodd" clip-rule="evenodd" d="M1682 0H240V197.547V266V336.453C268.625 358.251 310.505 372 357.162 372C380.53 372 402.7 368.551 422.606 362.37C440.52 407.088 501.273 440 573.463 440C654.212 440 720.652 398.819 728.832 345.999C729.114 346 729.397 346 729.679 346C730.418 346 731.155 345.997 731.892 345.99C744.957 424.833 814.314 485 897.913 485C968.016 485 1028.1 442.691 1053.38 382.539C1073.57 394.728 1099.04 402 1126.73 402C1182.23 402 1228.84 372.779 1241.8 333.303C1273.44 376.585 1326.71 405 1387.09 405C1447.01 405 1499.93 377.015 1531.65 334.286C1554.43 343.014 1580.8 348 1608.9 348C1635.31 348 1660.19 343.595 1682 335.818V266V150.182V0Z" fill="#849284"/>
<path d="M472.5 0H523L472.5 1023H366L472.5 0Z" fill="#6C7C6C"/>
<path d="M1318 0H1368.5L1318 1023H1171L1318 0Z" fill="#6C7C6C"/>
<path d="M743 0H830.484L864 1023H743V0Z" fill="#9BAE9B"/>
<path d="M533 0H578.061L671 1023H578.061L533 0Z" fill="#57675D"/>
<path d="M1594.53 3H1643V1005H1508L1594.53 3Z" fill="#6C7C6C"/>
<path fill-rule="evenodd" clip-rule="evenodd" d="M1681 1024L1681 946V817.867C1644.38 770.83 1576.24 753.1 1517.98 778.706C1503.72 784.973 1491.22 793.324 1480.7 803.19C1479.34 797.014 1477.19 790.893 1474.2 784.942C1453.46 743.635 1400.3 726.127 1355.46 745.837C1310.62 765.544 1291.07 814.997 1311.79 856.301L1311.77 856.311C1292.31 864.862 1276.58 878.301 1264.95 895.045C1262.9 889.986 1260.62 884.943 1258.11 879.933C1216.64 797.321 1127.2 754.888 1058.33 785.156C1022.38 800.956 999.145 833.443 991.043 872.642C942.674 809.016 852.415 784.394 775.715 818.105C752.909 828.128 733.578 842.309 718.237 859.271C709.451 819.64 674.075 790 631.772 790C591.718 790 557.874 816.572 546.931 853.038C526.538 833.395 498.208 821.221 466.888 821.221C453.483 821.221 440.626 823.451 428.704 827.543C430.048 822.244 430.76 816.717 430.76 811.034C430.76 771.652 396.579 739.726 354.413 739.726C312.248 739.726 278.067 771.652 278.067 811.034C264.742 811.034 251.936 813.738 240 818.719V923H240V1024H1681Z" fill="#5A7258"/>
<path d="M1065 -3H1165.5L1204 1020H1065V-3Z" fill="#57675D"/>
<g filter="url(#filter0_f_84_1147)">
<path d="M1523 1H1586L961.5 1024H664L1523 1Z" fill="#FFF7CA" fill-opacity="0.25"/>
</g>
<g filter="url(#filter1_f_84_1147)">
<path d="M1594.28 1H1668L1325.23 1024H1094L1594.28 1Z" fill="#FFF7CA" fill-opacity="0.5"/>
</g>
<g filter="url(#filter2_f_84_1147)">
<path d="M1397.5 1H1488L477 1024H284L1397.5 1Z" fill="#FFF7CA" fill-opacity="0.5"/>
</g>
<path fill-rule="evenodd" clip-rule="evenodd" d="M240 280.685L240 178L240 155L240 0H1682V155V178V282.693C1670.34 287.411 1657.87 289.966 1644.91 289.966C1644.91 329.349 1610.7 361.274 1568.51 361.274C1533.48 361.274 1503.96 339.276 1494.94 309.274C1466.73 329.086 1430.46 341 1390.89 341C1332.09 341 1280.57 314.685 1251.95 275.241C1244.71 289.402 1232.05 301.621 1215.18 309.027C1178.28 325.239 1135.25 312.262 1119.07 280.043C1118.86 279.632 1118.66 279.219 1118.46 278.806C1114.42 280.81 1110.29 282.738 1106.08 284.586C1034.27 316.126 957.92 316.138 904.909 289.87C891.421 311.118 871.315 328.88 845.737 340.114C778.787 369.519 698.97 343.382 664.291 281.788C656.52 289.719 646.978 296.405 635.89 301.274C591.014 320.984 537.815 303.477 517.066 262.169C516.595 261.23 516.144 260.287 515.714 259.34C497.529 276.258 475.003 291.167 449.006 302.585C367.634 338.324 279.834 327.749 240 280.685Z" fill="#447040"/>
<path d="M915.677 2H1024.94L1011.5 251.5L1027 240L1053.5 181L1035 248L1024 262.5L1044.5 258L1100.5 213.5L1053.5 270.5L1032 275L1015.5 290L1024.94 415L1044.5 424.5L1074 421.5L1049.5 381L1094.5 421.5L1156 355L1117.5 415L1156 408.5L1202.5 370.5L1166 415L1117.5 433L1074 439.75L1029 456L1035.5 549H1055L1117.5 510L1078 552.46L1124.5 563L1230.5 501L1124.5 579.5L1080 575.75L1035.5 586.5V681.333H1101.5L1182.5 638L1148 675.5L1230.5 668.5L1285 675.5L1383.5 638L1318.5 687L1350 706.5L1419 711.803L1332 719.5L1240.5 694.82L1124.5 711.803L1041.5 750V830.187L1079 838L1141.5 830.187L1167.5 750L1175 817.7L1240.5 789.5L1182.5 838L1115.5 855L1041.5 900.5L1053 1021H856.182L867.172 888.63L808.726 836.681L655.368 780L830.706 817.7L862.676 830.187L880.66 817.7L770.761 711.803L655.368 694.82L513 689.326L635.387 675.339L590.428 646.867L683.842 681.333H740.29L667.357 605.408L781.252 681.333L830.706 632.583L813.722 711.803L880.66 752.264L890.5 646.867L781.252 572L713 563L628 579.5L699 549L655.368 510L718 543L746 549L705.821 479.5L770.761 543L800.5 552.46L862.676 486.5L821 572L900.142 605.408L913.5 486.5L868.5 451.5L846.5 442L798 435.5L740.29 433L655.368 378.5L746 421.5H789.5L746 378.5L813.722 421.5H848L837 360L877.5 427.5L917 446.5L922.5 355L813.722 301L749.5 303.5L679 270.5L751.5 295.5L811.5 287.5L770.761 213.5L813.722 264L798 176.5L837 287.5L868.5 301L866 258L900.142 312L927.5 307L915.677 2Z" fill="#182F14"/>
<path fill-rule="evenodd" clip-rule="evenodd" d="M322.9 892.83L258.618 521.044L300.761 914.763L322.659 911.701L322.225 945.644L345.072 945.198L336.928 985.531L357.423 988.986L363.497 944.161L364.145 944.201L364.334 937.985L400.65 669.983L367.479 834.241L373.901 622.431L346.165 913.868L327.286 549.708L322.9 892.83ZM1456.49 600.816L1517.43 868.037L1540.37 627.012L1533.95 838.821L1567.12 674.564L1532.16 932.592L1544.54 986.871L1524.27 990.81L1523.9 993.566L1503.4 990.112L1511.98 947.613L1509.87 947.481L1510.78 937.962L1456.49 600.816ZM1659.2 607.288L1640.32 971.448L1612.58 680.012L1619 891.821L1585.83 727.564L1622.15 995.565L1622.34 1001.78L1622.99 1001.74L1629.06 1046.57L1649.56 1043.11L1641.41 1002.78L1664.26 1003.22L1659.2 607.288ZM610.605 681.209L672.495 953.395L656.765 729.783L679.034 890.447L684.004 762.048L689.939 969.051L782.877 789.131L727.044 918.158L789.296 824.379L699.697 981.356L698.059 985.142L697.633 984.972L690.742 997.046L691.071 1008.55L684.139 1008.61L682.647 1011.23L677.715 1008.68L674.457 1008.71L674.522 1007.02L669.707 1004.53L674.922 996.677L675.677 977.18L657.71 980.599L610.605 681.209ZM466.566 703.567L461.718 863.467L486.759 739.465L462.609 917.683L546.222 714.111L470.346 942.612L559.877 769.289L504.044 898.316L566.296 804.536L476.697 961.514L475.059 965.3L474.633 965.13L461.821 987.577L462.893 996.958L447.254 998.235L446.305 978.971L438.653 977.681L442.761 957.338L406.903 725.674L441.524 881.857L435.304 755.504L449.663 881.172L466.566 703.567ZM461.993 961.664L459.009 960.735L459.498 962.939L459.016 963.03L459.32 965.691L461.993 961.664ZM1440.49 919.395L1378.61 647.209L1425.71 946.599L1443.68 943.18L1442.46 974.708L1459.07 974.548L1458.08 939.911L1458.59 939.854L1457.94 935.14L1452 728.048L1447.03 856.447L1424.77 695.783L1440.49 919.395ZM1171.35 904.612L1247.22 676.111L1147.52 918.848L1162.99 923.664L1147.71 946.691L1160.65 953.385L1175.63 927.13L1176.06 927.3L1177.7 923.513L1267.3 766.536L1205.04 860.316L1260.88 731.289L1171.35 904.612ZM1147.57 698.567L1142.72 858.467L1167.76 734.465L1140.34 936.786L1140.2 941.48L1139.71 941.449L1138.85 947.815L1139.48 953.356L1140.5 957.939L1140.02 958.03L1143.89 991.958L1128.25 993.235L1127.31 973.971L1119.65 972.681L1123.76 952.338L1087.9 720.674L1122.52 876.857L1116.3 750.504L1130.66 876.172L1147.57 698.567Z" fill="#447040"/>
<path fill-rule="evenodd" clip-rule="evenodd" d="M456.363 344.109L455.353 341L454.343 344.109H451.073L453.718 346.031L452.708 349.141L455.353 347.219L457.998 349.141L456.988 346.031L459.633 344.109H456.363ZM462.302 375.382L461.853 374L461.404 375.382H459.951L461.127 376.236L460.678 377.618L461.853 376.764L463.029 377.618L462.58 376.236L463.755 375.382H462.302ZM413.853 377L414.527 379.073H416.706L414.943 380.354L415.617 382.427L413.853 381.146L412.09 382.427L412.763 380.354L411 379.073H413.18L413.853 377ZM442.853 399L443.527 401.073H445.706L443.943 402.354L444.617 404.427L442.853 403.146L441.09 404.427L441.763 402.354L440 401.073H442.18L442.853 399ZM463.853 448L464.302 449.382H465.755L464.58 450.236L465.029 451.618L463.853 450.764L462.678 451.618L463.127 450.236L461.951 449.382H463.404L463.853 448Z" fill="#FFF7CA"/>
<path fill-rule="evenodd" clip-rule="evenodd" d="M636.363 303.509L635.353 306.618L634.343 303.509H631.073L633.718 301.587L632.708 298.477L635.353 300.399L637.998 298.477L636.988 301.587L639.633 303.509H636.363ZM642.302 272.236L641.853 273.618L641.404 272.236H639.951L641.127 271.382L640.678 270L641.853 270.854L643.029 270L642.58 271.382L643.755 272.236H642.302ZM593.853 270.618L594.527 268.545H596.706L594.943 267.264L595.617 265.191L593.853 266.472L592.09 265.191L592.763 267.264L591 268.545H593.18L593.853 270.618ZM622.853 248.618L623.527 246.545H625.706L623.943 245.264L624.617 243.191L622.853 244.472L621.09 243.191L621.763 245.264L620 246.545H622.18L622.853 248.618ZM643.853 199.618L644.302 198.236H645.755L644.58 197.382L645.029 196L643.853 196.854L642.678 196L643.127 197.382L641.951 198.236H643.404L643.853 199.618Z" fill="#FFF7CA"/>
<path fill-rule="evenodd" clip-rule="evenodd" d="M1315.36 448.509L1314.35 451.618L1313.34 448.509H1310.07L1312.72 446.587L1311.71 443.477L1314.35 445.399L1317 443.477L1315.99 446.587L1318.63 448.509H1315.36ZM1321.3 417.236L1320.85 418.618L1320.4 417.236H1318.95L1320.13 416.382L1319.68 415L1320.85 415.854L1322.03 415L1321.58 416.382L1322.76 417.236H1321.3ZM1272.85 415.618L1273.53 413.545H1275.71L1273.94 412.264L1274.62 410.191L1272.85 411.472L1271.09 410.191L1271.76 412.264L1270 413.545H1272.18L1272.85 415.618ZM1301.85 393.618L1302.53 391.545H1304.71L1302.94 390.264L1303.62 388.191L1301.85 389.472L1300.09 388.191L1300.76 390.264L1299 391.545H1301.18L1301.85 393.618ZM1322.85 344.618L1323.3 343.236H1324.76L1323.58 342.382L1324.03 341L1322.85 341.854L1321.68 341L1322.13 342.382L1320.95 343.236H1322.4L1322.85 344.618Z" fill="#FFF7CA"/>
<path fill-rule="evenodd" clip-rule="evenodd" d="M1568.36 790.509L1567.35 793.618L1566.34 790.509H1563.07L1565.72 788.587L1564.71 785.477L1567.35 787.399L1570 785.477L1568.99 788.587L1571.63 790.509H1568.36ZM1574.3 759.236L1573.85 760.618L1573.4 759.236H1571.95L1573.13 758.382L1572.68 757L1573.85 757.854L1575.03 757L1574.58 758.382L1575.76 759.236H1574.3ZM1525.85 757.618L1526.53 755.545H1528.71L1526.94 754.264L1527.62 752.191L1525.85 753.472L1524.09 752.191L1524.76 754.264L1523 755.545H1525.18L1525.85 757.618ZM1554.85 735.618L1555.53 733.545H1557.71L1555.94 732.264L1556.62 730.191L1554.85 731.472L1553.09 730.191L1553.76 732.264L1552 733.545H1554.18L1554.85 735.618ZM1575.85 686.618L1576.3 685.236H1577.76L1576.58 684.382L1577.03 683L1575.85 683.854L1574.68 683L1575.13 684.382L1573.95 685.236H1575.4L1575.85 686.618Z" fill="#FFF7CA"/>
<path fill-rule="evenodd" clip-rule="evenodd" d="M917.363 344.109L916.353 341L915.343 344.109H912.073L914.718 346.031L913.708 349.141L916.353 347.219L918.998 349.141L917.988 346.031L920.633 344.109H917.363ZM923.302 375.382L922.853 374L922.404 375.382H920.951L922.127 376.236L921.678 377.618L922.853 376.764L924.029 377.618L923.58 376.236L924.755 375.382H923.302ZM874.853 377L875.527 379.073H877.706L875.943 380.354L876.617 382.427L874.853 381.146L873.09 382.427L873.763 380.354L872 379.073H874.18L874.853 377ZM903.853 399L904.527 401.073H906.706L904.943 402.354L905.617 404.427L903.853 403.146L902.09 404.427L902.763 402.354L901 401.073H903.18L903.853 399ZM924.853 448L925.302 449.382H926.755L925.58 450.236L926.029 451.618L924.853 450.764L923.678 451.618L924.127 450.236L922.951 449.382H924.404L924.853 448Z" fill="#FFF7CA"/>
<path fill-rule="evenodd" clip-rule="evenodd" d="M943.392 204.109L944.402 201L945.412 204.109H948.682L946.037 206.031L947.047 209.141L944.402 207.219L941.757 209.141L942.767 206.031L940.122 204.109H943.392ZM937.453 235.382L937.902 234L938.351 235.382H939.804L938.629 236.236L939.078 237.618L937.902 236.764L936.727 237.618L937.176 236.236L936 235.382H937.453ZM985.902 237L985.229 239.073H983.049L984.812 240.354L984.139 242.427L985.902 241.146L987.665 242.427L986.992 240.354L988.755 239.073H986.576L985.902 237ZM956.902 259L956.229 261.073H954.049L955.812 262.354L955.139 264.427L956.902 263.146L958.665 264.427L957.992 262.354L959.755 261.073H957.576L956.902 259ZM935.902 308L935.453 309.382H934L935.176 310.236L934.727 311.618L935.902 310.764L937.078 311.618L936.629 310.236L937.804 309.382H936.351L935.902 308Z" fill="#FFF7CA"/>
<path fill-rule="evenodd" clip-rule="evenodd" d="M1010.39 650.109L1011.4 647L1012.41 650.109H1015.68L1013.04 652.031L1014.05 655.141L1011.4 653.219L1008.76 655.141L1009.77 652.031L1007.12 650.109H1010.39ZM1004.45 681.382L1004.9 680L1005.35 681.382H1006.8L1005.63 682.236L1006.08 683.618L1004.9 682.764L1003.73 683.618L1004.18 682.236L1003 681.382H1004.45ZM1052.9 683L1052.23 685.073H1050.05L1051.81 686.354L1051.14 688.427L1052.9 687.146L1054.67 688.427L1053.99 686.354L1055.76 685.073H1053.58L1052.9 683ZM1023.9 705L1023.23 707.073H1021.05L1022.81 708.354L1022.14 710.427L1023.9 709.146L1025.67 710.427L1024.99 708.354L1026.76 707.073H1024.58L1023.9 705ZM1002.9 754L1002.45 755.382H1001L1002.18 756.236L1001.73 757.618L1002.9 756.764L1004.08 757.618L1003.63 756.236L1004.8 755.382H1003.35L1002.9 754Z" fill="#FFF7CA"/>
<path fill-rule="evenodd" clip-rule="evenodd" d="M1560.39 190.109L1561.4 187L1562.41 190.109H1565.68L1563.04 192.031L1564.05 195.141L1561.4 193.219L1558.76 195.141L1559.77 192.031L1557.12 190.109H1560.39ZM1554.45 221.382L1554.9 220L1555.35 221.382H1556.8L1555.63 222.236L1556.08 223.618L1554.9 222.764L1553.73 223.618L1554.18 222.236L1553 221.382H1554.45ZM1602.9 223L1602.23 225.073H1600.05L1601.81 226.354L1601.14 228.427L1602.9 227.146L1604.67 228.427L1603.99 226.354L1605.76 225.073H1603.58L1602.9 223ZM1573.9 245L1573.23 247.073H1571.05L1572.81 248.354L1572.14 250.427L1573.9 249.146L1575.67 250.427L1574.99 248.354L1576.76 247.073H1574.58L1573.9 245ZM1552.9 294L1552.45 295.382H1551L1552.18 296.236L1551.73 297.618L1552.9 296.764L1554.08 297.618L1553.63 296.236L1554.8 295.382H1553.35L1552.9 294Z" fill="#FFF7CA"/>
<path fill-rule="evenodd" clip-rule="evenodd" d="M876.363 337.509L875.353 340.618L874.343 337.509H871.073L873.718 335.587L872.708 332.477L875.353 334.399L877.998 332.477L876.988 335.587L879.633 337.509H876.363ZM882.302 306.236L881.853 307.618L881.404 306.236H879.951L881.127 305.382L880.678 304L881.853 304.854L883.029 304L882.58 305.382L883.755 306.236H882.302ZM833.853 304.618L834.527 302.545H836.706L834.943 301.264L835.617 299.191L833.853 300.472L832.09 299.191L832.763 301.264L831 302.545H833.18L833.853 304.618ZM862.853 282.618L863.527 280.545H865.706L863.943 279.264L864.617 277.191L862.853 278.472L861.09 277.191L861.763 279.264L860 280.545H862.18L862.853 282.618ZM883.853 233.618L884.302 232.236H885.755L884.58 231.382L885.029 230L883.853 230.854L882.678 230L883.127 231.382L881.951 232.236H883.404L883.853 233.618Z" fill="#FFF7CA"/>
<path fill-rule="evenodd" clip-rule="evenodd" d="M394.363 727.109L393.353 724L392.343 727.109H389.073L391.718 729.031L390.708 732.141L393.353 730.219L395.998 732.141L394.988 729.031L397.633 727.109H394.363ZM400.302 758.382L399.853 757L399.404 758.382H397.951L399.127 759.236L398.678 760.618L399.853 759.764L401.029 760.618L400.58 759.236L401.755 758.382H400.302ZM351.853 760L352.527 762.073H354.706L352.943 763.354L353.617 765.427L351.853 764.146L350.09 765.427L350.763 763.354L349 762.073H351.18L351.853 760ZM380.853 782L381.527 784.073H383.706L381.943 785.354L382.617 787.427L380.853 786.146L379.09 787.427L379.763 785.354L378 784.073H380.18L380.853 782ZM401.853 831L402.302 832.382H403.755L402.58 833.236L403.029 834.618L401.853 833.764L400.678 834.618L401.127 833.236L399.951 832.382H401.404L401.853 831Z" fill="#FFF7CA"/>
<path fill-rule="evenodd" clip-rule="evenodd" d="M1083.39 511.109L1084.4 508L1085.41 511.109H1088.68L1086.04 513.031L1087.05 516.141L1084.4 514.219L1081.76 516.141L1082.77 513.031L1080.12 511.109H1083.39ZM1077.45 542.382L1077.9 541L1078.35 542.382H1079.8L1078.63 543.236L1079.08 544.618L1077.9 543.764L1076.73 544.618L1077.18 543.236L1076 542.382H1077.45ZM1125.9 544L1125.23 546.073H1123.05L1124.81 547.354L1124.14 549.427L1125.9 548.146L1127.67 549.427L1126.99 547.354L1128.76 546.073H1126.58L1125.9 544ZM1096.9 566L1096.23 568.073H1094.05L1095.81 569.354L1095.14 571.427L1096.9 570.146L1098.67 571.427L1097.99 569.354L1099.76 568.073H1097.58L1096.9 566ZM1075.9 615L1075.45 616.382H1074L1075.18 617.236L1074.73 618.618L1075.9 617.764L1077.08 618.618L1076.63 617.236L1077.8 616.382H1076.35L1075.9 615Z" fill="#FFF7CA"/>
<path fill-rule="evenodd" clip-rule="evenodd" d="M521.39 0H240V169.5V174H240.122C242.461 216.918 278.052 251 321.613 251C327.274 251 332.8 250.424 338.136 249.329C338.136 249.386 338.136 249.443 338.136 249.5C338.136 276.286 361.225 298 389.708 298C418.19 298 441.279 276.286 441.279 249.5C441.279 246.16 440.92 242.9 440.237 239.75C456.252 246.953 474.283 251 493.351 251C526.482 251 556.482 238.782 578.22 219.021C583.588 256.293 617.073 285 657.579 285C695.885 285 727.912 259.326 735.819 225.015C740.014 225.663 744.319 226 748.706 226C781.148 226 809.087 207.584 821.683 181.103C844.794 202.626 877.136 216 912.933 216C943.102 216 970.817 206.501 992.621 190.63C1011.07 233.565 1057.21 264 1111.21 264C1167 264 1214.41 231.511 1231.54 186.313C1243.68 206.431 1266.64 220 1292.96 220C1305.02 220 1316.38 217.151 1326.31 212.127C1334.86 239.788 1361.98 260 1394.1 260C1430.48 260 1460.43 234.086 1464.28 200.787C1478.83 206.07 1494.89 209 1511.76 209C1524.32 209 1536.42 207.379 1547.79 204.373C1559.2 226.639 1583.4 242 1611.4 242C1650.39 242 1682 212.227 1682 175.5C1682 174.999 1681.99 174.499 1681.98 174H1682V0H1400.61H973.797H852.07H521.39Z" fill="#385237"/>
<path fill-rule="evenodd" clip-rule="evenodd" d="M1436.83 854.137C1429.25 854.137 1422.04 855.734 1415.52 858.612C1409.81 882.47 1385.9 900.371 1357.28 900.371C1327.7 900.371 1303.17 881.264 1298.52 856.22C1288.18 851.649 1276.74 849.112 1264.71 849.112C1223.71 849.112 1189.57 878.589 1182.15 917.592C1174.38 911.785 1165.1 908.411 1155.14 908.411C1134.79 908.411 1117.31 922.474 1109.68 942.584H811.693C804.711 925.438 788.612 913.437 769.868 913.437C765.695 913.437 761.653 914.031 757.814 915.145C758.173 917.373 758.36 919.656 758.36 921.98C758.36 946.681 737.302 966.706 711.327 966.706C685.352 966.706 664.294 946.681 664.294 921.98C664.294 920.177 664.407 918.4 664.625 916.653C653.467 895.612 631.29 881.274 605.754 881.274C582.806 881.274 562.57 892.853 550.607 910.47C536.735 900.325 519.654 894.34 501.181 894.34C490.571 894.34 480.419 896.315 471.071 899.918C469.563 874.932 449.122 855.142 424.128 855.142C409.518 855.142 396.465 861.904 387.838 872.512C372.422 854.494 349.567 843.081 324.058 843.081C277.634 843.081 240 880.88 240 927.508C240 928.517 240.018 929.522 240.053 930.523H240V942.584V962.685V1025H430.836H571.526H864.576H1118.42H1681V966.706V942.584V930.523C1681 901.103 1657.25 877.254 1627.96 877.254C1625.6 877.254 1623.27 877.409 1620.99 877.71C1608.03 847.863 1578.39 827 1543.9 827C1513.47 827 1486.81 843.249 1472.06 867.582C1462.69 859.218 1450.35 854.137 1436.83 854.137Z" fill="#385237"/>
</g>
<defs>
<filter id="filter0_f_84_1147" x="654" y="-9" width="942" height="1043" filterUnits="userSpaceOnUse" color-interpolation-filters="sRGB">
<feFlood flood-opacity="0" result="BackgroundImageFix"/>
<feBlend mode="normal" in="SourceGraphic" in2="BackgroundImageFix" result="shape"/>
<feGaussianBlur stdDeviation="5" result="effect1_foregroundBlur_84_1147"/>
</filter>
<filter id="filter1_f_84_1147" x="1084" y="-9" width="594" height="1043" filterUnits="userSpaceOnUse" color-interpolation-filters="sRGB">
<feFlood flood-opacity="0" result="BackgroundImageFix"/>
<feBlend mode="normal" in="SourceGraphic" in2="BackgroundImageFix" result="shape"/>
<feGaussianBlur stdDeviation="5" result="effect1_foregroundBlur_84_1147"/>
</filter>
<filter id="filter2_f_84_1147" x="274" y="-9" width="1224" height="1043" filterUnits="userSpaceOnUse" color-interpolation-filters="sRGB">
<feFlood flood-opacity="0" result="BackgroundImageFix"/>
<feBlend mode="normal" in="SourceGraphic" in2="BackgroundImageFix" result="shape"/>
<feGaussianBlur stdDeviation="5" result="effect1_foregroundBlur_84_1147"/>
</filter>
<linearGradient id="paint0_linear_84_1147" x1="960" y1="0" x2="960" y2="1024" gradientUnits="userSpaceOnUse">
<stop stop-color="#FFF7CA"/>
<stop offset="1" stop-color="#F6F9F1" stop-opacity="0"/>
</linearGradient>
<linearGradient id="paint1_linear_84_1147" x1="961" y1="0" x2="961" y2="1036" gradientUnits="userSpaceOnUse">
<stop stop-color="#FFF7CA"/>
<stop offset="1" stop-color="#F6F9F1" stop-opacity="0"/>
</linearGradient>
<linearGradient id="paint2_linear_84_1147" x1="928.335" y1="424.806" x2="928.335" y2="1024" gradientUnits="userSpaceOnUse">
<stop stop-color="#CAD0C2" stop-opacity="0.25"/>
<stop offset="0.284733" stop-color="#CAD0C2"/>
</linearGradient>
<clipPath id="clip0_84_1147">
<rect width="1920" height="1080" fill="white"/>
</clipPath>
<clipPath id="clip1_84_1147">
<rect width="1441" height="1024" fill="white" transform="translate(240)"/>
</clipPath>
</defs>
</svg>
