<svg width="20" height="17" viewBox="0 0 20 17" fill="none" xmlns="http://www.w3.org/2000/svg">
<path d="M16.5 3.47C15.76 4.2 15.57 5.25 15.92 6.15L13 9.07V7C13 6.45 12.55 6 12 6H10.97C11 5.83 11 5.67 11 5.5C11 2.46 8.54 0 5.5 0C2.46 0 0 2.46 0 5.5C0 7.21 0.78 8.73 2 9.74V16C2 16.55 2.45 17 3 17H12C12.55 17 13 16.55 13 16V11.89L17.33 7.56C18.23 7.91 19.28 7.73 20 7L16.5 3.47ZM2.05 6C2.03 5.83 2 5.67 2 5.5C2 3.57 3.57 2 5.5 2C7.43 2 9 3.57 9 5.5C9 5.67 8.97 5.83 8.95 6H2.05Z" fill="#F27127"/>
</svg>
