<svg width="1441" height="1024" viewBox="0 0 1441 1024" fill="none" xmlns="http://www.w3.org/2000/svg">
<g clip-path="url(#clip0_84_1145)">
<rect width="1441" height="1024" fill="white"/>
<rect width="1441" height="1036" fill="url(#paint0_linear_84_1145)"/>
<path fill-rule="evenodd" clip-rule="evenodd" d="M1442 572.741C1268.69 440.296 1041.59 356.594 849.196 499C628.083 635.588 353.523 604.688 163.695 583.324C28.9939 568.164 -63.042 557.806 -63.042 615.5C-63.042 626.747 -63.5238 639.316 -64.0453 652.921C-68.1173 759.159 -74.6086 928.517 127.005 1024H1442V572.741Z" fill="url(#paint1_linear_84_1145)"/>
<path fill-rule="evenodd" clip-rule="evenodd" d="M1442 720.384C1397.43 704.228 1320.41 701.288 1225.24 697.655C1057.7 691.259 833.885 682.716 631.814 596.144C466.065 512.729 211.644 598.958 0 721.096V1024H1196.42C1308.33 966.108 1394.27 902.771 1442 848.6V720.384Z" fill="#849284"/>
<path d="M1138 6H1210L1358.5 1029H1210L1138 6Z" fill="#9BAE9B"/>
<path d="M51.5 0H111L170.5 1023H51.5V0Z" fill="#9BAE9B"/>
<path fill-rule="evenodd" clip-rule="evenodd" d="M1440 0H0V197.547V266V336.453C28.6047 358.251 70.4559 372 117.081 372C140.433 372 162.587 368.551 182.479 362.37C200.381 407.088 261.092 440 333.231 440C413.925 440 480.319 398.819 488.493 345.999L488.571 345.999C488.827 346 489.083 346 489.339 346C489.583 346 489.826 346 490.069 345.999C490.564 345.997 491.057 345.994 491.55 345.99C504.606 424.833 573.915 485 657.456 485C727.511 485 787.557 442.691 812.818 382.539C832.991 394.728 858.446 402 886.115 402C941.579 402 988.149 372.779 1001.11 333.303C1032.73 376.585 1085.96 405 1146.3 405C1206.18 405 1259.06 377.015 1290.76 334.286C1313.52 343.014 1339.87 348 1367.95 348C1394.34 348 1419.2 343.595 1441 335.818V150.182C1440.67 150.063 1440.33 149.945 1440 149.828V0Z" fill="#849284"/>
<path d="M232.5 0H283L232.5 1023H126L232.5 0Z" fill="#6C7C6C"/>
<path d="M1078 0H1128.5L1078 1023H931L1078 0Z" fill="#6C7C6C"/>
<path d="M503 0H590.484L624 1023H503V0Z" fill="#9BAE9B"/>
<path d="M293 0H338.061L431 1023H338.061L293 0Z" fill="#57675D"/>
<path d="M1354.53 3H1403V1005H1268L1354.53 3Z" fill="#6C7C6C"/>
<path fill-rule="evenodd" clip-rule="evenodd" d="M1440 946H1442V817.867C1405.36 770.83 1337.18 753.1 1278.89 778.706C1264.62 784.973 1252.11 793.324 1241.58 803.19C1240.22 797.014 1238.06 790.893 1235.07 784.942C1214.33 743.635 1161.13 726.127 1116.26 745.837C1071.4 765.544 1051.84 814.997 1072.57 856.301L1072.55 856.311C1053.08 864.862 1037.34 878.301 1025.71 895.045C1023.65 889.986 1021.37 884.943 1018.86 879.933C977.365 797.321 887.867 754.888 818.958 785.156C782.988 800.956 759.737 833.443 751.63 872.642C703.233 809.016 612.92 784.394 536.174 818.105C513.051 828.262 493.499 842.686 478.052 859.948C469.527 819.978 434.014 790 391.5 790C351.619 790 317.9 816.379 306.838 852.641C286.464 833.231 258.289 821.221 227.163 821.221C213.749 821.221 200.884 823.451 188.955 827.542C190.301 822.244 191.013 816.716 191.013 811.034C191.013 771.652 156.811 739.726 114.621 739.726C72.4304 739.726 38.2285 771.652 38.2281 811.034C24.8436 811.034 11.9826 813.759 0 818.777V923V946V1024H1440V946Z" fill="#5A7258"/>
<path d="M825 -3H925.498L964 1020H825V-3Z" fill="#57675D"/>
<g filter="url(#filter0_f_84_1145)">
<path d="M1283 1H1346L721.5 1024H424L1283 1Z" fill="#FFF7CA" fill-opacity="0.25"/>
</g>
<g filter="url(#filter1_f_84_1145)">
<path d="M1354.28 1H1428L1085.23 1024H854L1354.28 1Z" fill="#FFF7CA" fill-opacity="0.5"/>
</g>
<g filter="url(#filter2_f_84_1145)">
<path d="M1157.5 1H1248L237 1024H44L1157.5 1Z" fill="#FFF7CA" fill-opacity="0.5"/>
</g>
<path fill-rule="evenodd" clip-rule="evenodd" d="M0.000366211 280.685L0 178V0H1441V155V178V282.693C1429.35 287.411 1416.89 289.966 1403.93 289.966C1403.93 329.349 1369.75 361.274 1327.59 361.274C1292.59 361.274 1263.09 339.276 1254.07 309.274C1225.88 329.086 1189.63 341 1150.1 341C1091.05 341 1039.36 314.43 1010.84 274.669C1003.66 289.072 990.896 301.521 973.831 309.027C936.978 325.239 894.004 312.262 877.846 280.043C877.68 279.713 877.518 279.382 877.359 279.05C873.474 280.966 869.513 282.813 865.479 284.586C793.718 316.126 717.422 316.138 664.448 289.87C650.969 311.117 630.877 328.88 605.317 340.114C538.413 369.519 458.651 343.382 423.997 281.788C416.231 289.719 406.696 296.405 395.616 301.274C350.771 320.984 297.608 303.476 276.874 262.169C276.403 261.23 275.952 260.287 275.523 259.34C257.35 276.258 234.841 291.167 208.861 302.585C127.546 338.324 39.807 327.749 0.000366211 280.685Z" fill="#447040"/>
<path d="M675.677 2H784.937L771.5 251.5L787 240L813.5 181L795 248L784 262.5L804.5 258L860.5 213.5L813.5 270.5L792 275L775.5 290L784.937 415L804.5 424.5L834 421.5L809.5 381L854.5 421.5L916 355L877.5 415L916 408.5L962.5 370.5L926 415L877.5 433L834 439.75L789 456L795.5 549H815L877.5 510L838 552.46L884.5 563L990.5 501L884.5 579.5L840 575.75L795.5 586.5V681.333H861.5L942.5 638L908 675.5L990.5 668.5L1045 675.5L1143.5 638L1078.5 687L1110 706.5L1179 711.803L1092 719.5L1000.5 694.82L884.5 711.803L801.5 750V830.187L839 838L901.5 830.187L927.5 750L935 817.7L1000.5 789.5L942.5 838L875.5 855L801.5 900.5L813 1021H616.182L627.172 888.63L568.726 836.681L415.368 780L590.706 817.7L622.676 830.187L640.66 817.7L530.761 711.803L415.368 694.82L273 689.326L395.387 675.339L350.428 646.867L443.842 681.333H500.29L427.357 605.408L541.252 681.333L590.706 632.583L573.722 711.803L640.66 752.264L650.5 646.867L541.252 572L473 563L388 579.5L459 549L415.368 510L478 543L506 549L465.821 479.5L530.761 543L560.5 552.46L622.676 486.5L581 572L660.142 605.408L673.5 486.5L628.5 451.5L606.5 442L558 435.5L500.29 433L415.368 378.5L506 421.5H549.5L506 378.5L573.722 421.5H608L597 360L637.5 427.5L677 446.5L682.5 355L573.722 301L509.5 303.5L439 270.5L511.5 295.5L571.5 287.5L530.761 213.5L573.722 264L558 176.5L597 287.5L628.5 301L626 258L660.142 312L687.5 307L675.677 2Z" fill="#182F14"/>
<path fill-rule="evenodd" clip-rule="evenodd" d="M82.9003 892.83L18.6182 521.044L60.7611 914.763L82.6591 911.701L82.2253 945.644L105.072 945.198L96.9275 985.531L117.423 988.986L123.497 944.161L124.145 944.201L124.334 937.985L160.65 669.983L127.479 834.241L133.901 622.431L106.165 913.868L87.2856 549.708L82.9003 892.83ZM1216.49 600.816L1277.43 868.037L1300.37 627.012L1293.95 838.821L1327.12 674.564L1292.16 932.592L1304.54 986.871L1284.27 990.81L1283.89 993.566L1263.4 990.112L1271.98 947.613L1269.87 947.481L1270.78 937.962L1216.49 600.816ZM1419.2 607.288L1400.32 971.449L1372.58 680.012L1379 891.821L1345.83 727.564L1382.15 995.565L1382.34 1001.78L1382.99 1001.74L1389.06 1046.57L1409.56 1043.11L1401.41 1002.78L1424.26 1003.22L1419.2 607.288ZM370.605 681.209L432.495 953.395L416.765 729.783L439.034 890.447L444.004 762.048L449.939 969.051L542.877 789.131L487.044 918.158L549.296 824.379L459.697 981.356L458.059 985.142L457.633 984.972L450.742 997.046L451.071 1008.55L444.139 1008.61L442.647 1011.23L437.715 1008.68L434.457 1008.71L434.522 1007.02L429.707 1004.53L434.922 996.678L435.677 977.18L417.71 980.599L370.605 681.209ZM226.566 703.567L221.718 863.467L246.759 739.465L222.609 917.683L306.222 714.111L230.346 942.612L319.877 769.289L264.044 898.316L326.296 804.536L236.697 961.514L235.059 965.3L234.633 965.13L221.821 987.577L222.893 996.958L207.254 998.235L206.305 978.971L198.653 977.681L202.761 957.338L166.903 725.674L201.524 881.857L195.304 755.504L209.663 881.172L226.566 703.567ZM221.993 961.664L219.009 960.735L219.498 962.939L219.016 963.03L219.32 965.691L221.993 961.664ZM1200.49 919.395L1138.61 647.209L1185.71 946.599L1203.68 943.18L1202.46 974.708L1219.07 974.548L1218.08 939.911L1218.59 939.854L1217.94 935.14L1212 728.048L1207.03 856.447L1184.77 695.783L1200.49 919.395ZM931.346 904.612L1007.22 676.111L907.523 918.848L922.993 923.664L907.707 946.691L920.647 953.385L935.633 927.13L936.059 927.3L937.697 923.514L1027.3 766.536L965.044 860.316L1020.88 731.289L931.346 904.612ZM907.565 698.567L902.718 858.467L927.759 734.465L900.343 936.786L900.201 941.48L899.711 941.449L898.849 947.815L899.482 953.356L900.498 957.939L900.016 958.03L903.893 991.958L888.254 993.235L887.305 973.971L879.653 972.681L883.761 952.338L847.903 720.674L882.524 876.857L876.304 750.504L890.663 876.172L907.565 698.567Z" fill="#447040"/>
<path fill-rule="evenodd" clip-rule="evenodd" d="M216.363 344.109L215.353 341L214.343 344.109H211.073L213.718 346.031L212.708 349.141L215.353 347.219L217.998 349.141L216.988 346.031L219.633 344.109H216.363ZM222.302 375.382L221.853 374L221.404 375.382H219.951L221.127 376.236L220.678 377.618L221.853 376.764L223.029 377.618L222.58 376.236L223.755 375.382H222.302ZM173.853 377L174.527 379.073H176.706L174.943 380.354L175.617 382.427L173.853 381.146L172.09 382.427L172.763 380.354L171 379.073H173.18L173.853 377ZM202.853 399L203.527 401.073H205.706L203.943 402.354L204.617 404.427L202.853 403.146L201.09 404.427L201.763 402.354L200 401.073H202.18L202.853 399ZM223.853 448L224.302 449.382H225.755L224.58 450.236L225.029 451.618L223.853 450.764L222.678 451.618L223.127 450.236L221.951 449.382H223.404L223.853 448Z" fill="#FFF7CA"/>
<path fill-rule="evenodd" clip-rule="evenodd" d="M396.363 303.509L395.353 306.618L394.343 303.509H391.073L393.718 301.587L392.708 298.477L395.353 300.399L397.998 298.477L396.988 301.587L399.633 303.509H396.363ZM402.302 272.236L401.853 273.618L401.404 272.236H399.951L401.127 271.382L400.678 270L401.853 270.854L403.029 270L402.58 271.382L403.755 272.236H402.302ZM353.853 270.618L354.527 268.545H356.706L354.943 267.264L355.617 265.191L353.853 266.472L352.09 265.191L352.763 267.264L351 268.545H353.18L353.853 270.618ZM382.853 248.618L383.527 246.545H385.706L383.943 245.264L384.617 243.191L382.853 244.472L381.09 243.191L381.763 245.264L380 246.545H382.18L382.853 248.618ZM403.853 199.618L404.302 198.236H405.755L404.58 197.382L405.029 196L403.853 196.854L402.678 196L403.127 197.382L401.951 198.236H403.404L403.853 199.618Z" fill="#FFF7CA"/>
<path fill-rule="evenodd" clip-rule="evenodd" d="M1075.36 448.509L1074.35 451.618L1073.34 448.509H1070.07L1072.72 446.587L1071.71 443.477L1074.35 445.399L1077 443.477L1075.99 446.587L1078.63 448.509H1075.36ZM1081.3 417.236L1080.85 418.618L1080.4 417.236H1078.95L1080.13 416.382L1079.68 415L1080.85 415.854L1082.03 415L1081.58 416.382L1082.76 417.236H1081.3ZM1032.85 415.618L1033.53 413.545H1035.71L1033.94 412.264L1034.62 410.191L1032.85 411.472L1031.09 410.191L1031.76 412.264L1030 413.545H1032.18L1032.85 415.618ZM1061.85 393.618L1062.53 391.545H1064.71L1062.94 390.264L1063.62 388.191L1061.85 389.472L1060.09 388.191L1060.76 390.264L1059 391.545H1061.18L1061.85 393.618ZM1082.85 344.618L1083.3 343.236H1084.76L1083.58 342.382L1084.03 341L1082.85 341.854L1081.68 341L1082.13 342.382L1080.95 343.236H1082.4L1082.85 344.618Z" fill="#FFF7CA"/>
<path fill-rule="evenodd" clip-rule="evenodd" d="M1328.36 790.509L1327.35 793.618L1326.34 790.509H1323.07L1325.72 788.587L1324.71 785.477L1327.35 787.399L1330 785.477L1328.99 788.587L1331.63 790.509H1328.36ZM1334.3 759.236L1333.85 760.618L1333.4 759.236H1331.95L1333.13 758.382L1332.68 757L1333.85 757.854L1335.03 757L1334.58 758.382L1335.76 759.236H1334.3ZM1285.85 757.618L1286.53 755.545H1288.71L1286.94 754.264L1287.62 752.191L1285.85 753.472L1284.09 752.191L1284.76 754.264L1283 755.545H1285.18L1285.85 757.618ZM1314.85 735.618L1315.53 733.545H1317.71L1315.94 732.264L1316.62 730.191L1314.85 731.472L1313.09 730.191L1313.76 732.264L1312 733.545H1314.18L1314.85 735.618ZM1335.85 686.618L1336.3 685.236H1337.76L1336.58 684.382L1337.03 683L1335.85 683.854L1334.68 683L1335.13 684.382L1333.95 685.236H1335.4L1335.85 686.618Z" fill="#FFF7CA"/>
<path fill-rule="evenodd" clip-rule="evenodd" d="M677.363 344.109L676.353 341L675.343 344.109H672.073L674.718 346.031L673.708 349.141L676.353 347.219L678.998 349.141L677.988 346.031L680.633 344.109H677.363ZM683.302 375.382L682.853 374L682.404 375.382H680.951L682.127 376.236L681.678 377.618L682.853 376.764L684.029 377.618L683.58 376.236L684.755 375.382H683.302ZM634.853 377L635.527 379.073H637.706L635.943 380.354L636.617 382.427L634.853 381.146L633.09 382.427L633.763 380.354L632 379.073H634.18L634.853 377ZM663.853 399L664.527 401.073H666.706L664.943 402.354L665.617 404.427L663.853 403.146L662.09 404.427L662.763 402.354L661 401.073H663.18L663.853 399ZM684.853 448L685.302 449.382H686.755L685.58 450.236L686.029 451.618L684.853 450.764L683.678 451.618L684.127 450.236L682.951 449.382H684.404L684.853 448Z" fill="#FFF7CA"/>
<path fill-rule="evenodd" clip-rule="evenodd" d="M703.392 204.109L704.402 201L705.413 204.109H708.682L706.037 206.031L707.047 209.141L704.402 207.219L701.757 209.141L702.767 206.031L700.122 204.109H703.392ZM697.453 235.382L697.902 234L698.351 235.382H699.804L698.629 236.236L699.078 237.618L697.902 236.764L696.727 237.618L697.176 236.236L696 235.382H697.453ZM745.902 237L745.229 239.073H743.049L744.812 240.354L744.139 242.427L745.902 241.146L747.666 242.427L746.992 240.354L748.755 239.073H746.576L745.902 237ZM716.902 259L716.229 261.073H714.049L715.812 262.354L715.139 264.427L716.902 263.146L718.666 264.427L717.992 262.354L719.755 261.073H717.576L716.902 259ZM695.902 308L695.453 309.382H694L695.176 310.236L694.727 311.618L695.902 310.764L697.078 311.618L696.629 310.236L697.804 309.382H696.351L695.902 308Z" fill="#FFF7CA"/>
<path fill-rule="evenodd" clip-rule="evenodd" d="M770.392 650.109L771.402 647L772.413 650.109H775.682L773.037 652.031L774.047 655.141L771.402 653.219L768.757 655.141L769.767 652.031L767.122 650.109H770.392ZM764.453 681.382L764.902 680L765.351 681.382H766.804L765.629 682.236L766.078 683.618L764.902 682.764L763.727 683.618L764.176 682.236L763 681.382H764.453ZM812.902 683L812.229 685.073H810.049L811.812 686.354L811.139 688.427L812.902 687.146L814.666 688.427L813.992 686.354L815.755 685.073H813.576L812.902 683ZM783.902 705L783.229 707.073H781.049L782.812 708.354L782.139 710.427L783.902 709.146L785.666 710.427L784.992 708.354L786.755 707.073H784.576L783.902 705ZM762.902 754L762.453 755.382H761L762.176 756.236L761.727 757.618L762.902 756.764L764.078 757.618L763.629 756.236L764.804 755.382H763.351L762.902 754Z" fill="#FFF7CA"/>
<path fill-rule="evenodd" clip-rule="evenodd" d="M1320.39 190.109L1321.4 187L1322.41 190.109H1325.68L1323.04 192.031L1324.05 195.141L1321.4 193.219L1318.76 195.141L1319.77 192.031L1317.12 190.109H1320.39ZM1314.45 221.382L1314.9 220L1315.35 221.382H1316.8L1315.63 222.236L1316.08 223.618L1314.9 222.764L1313.73 223.618L1314.18 222.236L1313 221.382H1314.45ZM1362.9 223L1362.23 225.073H1360.05L1361.81 226.354L1361.14 228.427L1362.9 227.146L1364.67 228.427L1363.99 226.354L1365.76 225.073H1363.58L1362.9 223ZM1333.9 245L1333.23 247.073H1331.05L1332.81 248.354L1332.14 250.427L1333.9 249.146L1335.67 250.427L1334.99 248.354L1336.76 247.073H1334.58L1333.9 245ZM1312.9 294L1312.45 295.382H1311L1312.18 296.236L1311.73 297.618L1312.9 296.764L1314.08 297.618L1313.63 296.236L1314.8 295.382H1313.35L1312.9 294Z" fill="#FFF7CA"/>
<path fill-rule="evenodd" clip-rule="evenodd" d="M636.363 337.509L635.353 340.618L634.343 337.509H631.073L633.718 335.587L632.708 332.477L635.353 334.399L637.998 332.477L636.988 335.587L639.633 337.509H636.363ZM642.302 306.236L641.853 307.618L641.404 306.236H639.951L641.127 305.382L640.678 304L641.853 304.854L643.029 304L642.58 305.382L643.755 306.236H642.302ZM593.853 304.618L594.527 302.545H596.706L594.943 301.264L595.617 299.191L593.853 300.472L592.09 299.191L592.763 301.264L591 302.545H593.18L593.853 304.618ZM622.853 282.618L623.527 280.545H625.706L623.943 279.264L624.617 277.191L622.853 278.472L621.09 277.191L621.763 279.264L620 280.545H622.18L622.853 282.618ZM643.853 233.618L644.302 232.236H645.755L644.58 231.382L645.029 230L643.853 230.854L642.678 230L643.127 231.382L641.951 232.236H643.404L643.853 233.618Z" fill="#FFF7CA"/>
<path fill-rule="evenodd" clip-rule="evenodd" d="M154.363 727.109L153.353 724L152.343 727.109H149.073L151.718 729.031L150.708 732.141L153.353 730.219L155.998 732.141L154.988 729.031L157.633 727.109H154.363ZM160.302 758.382L159.853 757L159.404 758.382H157.951L159.127 759.236L158.678 760.618L159.853 759.764L161.029 760.618L160.58 759.236L161.755 758.382H160.302ZM111.853 760L112.527 762.073H114.706L112.943 763.354L113.617 765.427L111.853 764.146L110.09 765.427L110.763 763.354L109 762.073H111.18L111.853 760ZM140.853 782L141.527 784.073H143.706L141.943 785.354L142.617 787.427L140.853 786.146L139.09 787.427L139.763 785.354L138 784.073H140.18L140.853 782ZM161.853 831L162.302 832.382H163.755L162.58 833.236L163.029 834.618L161.853 833.764L160.678 834.618L161.127 833.236L159.951 832.382H161.404L161.853 831Z" fill="#FFF7CA"/>
<path fill-rule="evenodd" clip-rule="evenodd" d="M843.392 511.109L844.402 508L845.413 511.109H848.682L846.037 513.031L847.047 516.141L844.402 514.219L841.757 516.141L842.767 513.031L840.122 511.109H843.392ZM837.453 542.382L837.902 541L838.351 542.382H839.804L838.629 543.236L839.078 544.618L837.902 543.764L836.727 544.618L837.176 543.236L836 542.382H837.453ZM885.902 544L885.229 546.073H883.049L884.812 547.354L884.139 549.427L885.902 548.146L887.666 549.427L886.992 547.354L888.755 546.073H886.576L885.902 544ZM856.902 566L856.229 568.073H854.049L855.812 569.354L855.139 571.427L856.902 570.146L858.666 571.427L857.992 569.354L859.755 568.073H857.576L856.902 566ZM835.902 615L835.453 616.382H834L835.176 617.236L834.727 618.618L835.902 617.764L837.078 618.618L836.629 617.236L837.804 616.382H836.351L835.902 615Z" fill="#FFF7CA"/>
<path fill-rule="evenodd" clip-rule="evenodd" d="M281.195 0H0V169.5V174H0.122215C2.4594 216.918 38.0251 251 81.5566 251C87.2135 251 92.7359 250.424 98.0684 249.329C98.0682 249.386 98.0681 249.443 98.0681 249.5C98.0681 276.286 121.141 298 149.604 298C178.066 298 201.14 276.286 201.14 249.5C201.14 246.16 200.781 242.9 200.098 239.75C216.102 246.953 234.121 251 253.176 251C286.284 251 316.262 238.782 337.985 219.021C343.35 256.293 376.812 285 417.29 285C455.569 285 487.574 259.326 495.475 225.015C499.667 225.663 503.969 226 508.353 226C540.773 226 568.692 207.584 581.279 181.103C604.375 202.626 636.695 216 672.467 216C702.614 216 730.31 206.501 752.099 190.63C770.532 233.565 816.641 264 870.604 264C926.36 264 973.729 231.511 990.853 186.313C1002.98 206.431 1025.93 220 1052.23 220C1064.28 220 1075.63 217.151 1085.56 212.127C1094.1 239.788 1121.2 260 1153.3 260C1189.65 260 1219.58 234.086 1223.43 200.787C1237.97 206.07 1254.02 209 1270.88 209C1283.43 209 1295.52 207.379 1306.88 204.373C1318.28 226.639 1342.46 242 1370.45 242C1409.41 242 1441 212.227 1441 175.5C1441 174.999 1440.99 174.499 1440.98 174H1441V0H1159.8H733.288H611.645H281.195Z" fill="#385237"/>
<path fill-rule="evenodd" clip-rule="evenodd" d="M1196.83 854.274C1189.25 854.274 1182.04 855.88 1175.52 858.772C1169.81 882.751 1145.9 900.741 1117.28 900.741C1087.7 900.741 1063.16 881.538 1058.52 856.368C1048.18 851.774 1036.74 849.223 1024.71 849.223C983.715 849.223 949.573 878.849 942.15 918.05C934.38 912.214 925.101 908.822 915.135 908.822C894.789 908.822 877.308 922.956 869.684 943.168H571.693C564.71 925.935 548.612 913.873 529.868 913.873C525.695 913.873 521.653 914.471 517.814 915.59C518.173 917.83 518.36 920.124 518.36 922.459C518.36 947.286 497.302 967.411 471.327 967.411C445.352 967.411 424.294 947.286 424.294 922.459C424.294 920.648 424.407 918.861 424.625 917.106C413.467 895.959 391.29 881.548 365.754 881.548C342.806 881.548 322.57 893.186 310.607 910.891C296.735 900.695 279.654 894.68 261.181 894.68C250.571 894.68 240.419 896.665 231.071 900.286C229.563 875.175 209.122 855.284 184.128 855.284C169.518 855.284 156.465 862.08 147.838 872.742C132.422 854.632 109.567 843.162 84.0583 843.162C37.6342 843.162 0 881.152 0 928.015C0 929.03 0.017634 930.04 0.0526093 931.046H0V943.168V963.371V1026H190.836H331.527H624.576H878.422H1441V943.168L1441 931.162L1441 931.046C1441 901.477 1417.25 877.508 1387.96 877.508C1385.6 877.508 1383.27 877.664 1380.99 877.966C1368.03 847.969 1338.4 827 1303.91 827C1273.47 827 1246.81 843.331 1232.06 867.787C1222.69 859.381 1210.35 854.274 1196.83 854.274Z" fill="#385237"/>
</g>
<defs>
<filter id="filter0_f_84_1145" x="414" y="-9" width="942" height="1043" filterUnits="userSpaceOnUse" color-interpolation-filters="sRGB">
<feFlood flood-opacity="0" result="BackgroundImageFix"/>
<feBlend mode="normal" in="SourceGraphic" in2="BackgroundImageFix" result="shape"/>
<feGaussianBlur stdDeviation="5" result="effect1_foregroundBlur_84_1145"/>
</filter>
<filter id="filter1_f_84_1145" x="844" y="-9" width="594" height="1043" filterUnits="userSpaceOnUse" color-interpolation-filters="sRGB">
<feFlood flood-opacity="0" result="BackgroundImageFix"/>
<feBlend mode="normal" in="SourceGraphic" in2="BackgroundImageFix" result="shape"/>
<feGaussianBlur stdDeviation="5" result="effect1_foregroundBlur_84_1145"/>
</filter>
<filter id="filter2_f_84_1145" x="34" y="-9" width="1224" height="1043" filterUnits="userSpaceOnUse" color-interpolation-filters="sRGB">
<feFlood flood-opacity="0" result="BackgroundImageFix"/>
<feBlend mode="normal" in="SourceGraphic" in2="BackgroundImageFix" result="shape"/>
<feGaussianBlur stdDeviation="5" result="effect1_foregroundBlur_84_1145"/>
</filter>
<linearGradient id="paint0_linear_84_1145" x1="720.5" y1="0" x2="720.5" y2="1036" gradientUnits="userSpaceOnUse">
<stop stop-color="#FFF7CA"/>
<stop offset="1" stop-color="#F6F9F1" stop-opacity="0"/>
</linearGradient>
<linearGradient id="paint1_linear_84_1145" x1="687.835" y1="424.806" x2="687.835" y2="1024" gradientUnits="userSpaceOnUse">
<stop stop-color="#CAD0C2" stop-opacity="0.25"/>
<stop offset="0.284733" stop-color="#CAD0C2"/>
</linearGradient>
<clipPath id="clip0_84_1145">
<rect width="1441" height="1024" fill="white"/>
</clipPath>
</defs>
</svg>
