<svg width="1928" height="1088" viewBox="0 0 1928 1088" fill="none" xmlns="http://www.w3.org/2000/svg">
<g clip-path="url(#clip0_202_9513)" filter="url(#filter0_d_202_9513)">
<rect width="1920" height="1080" transform="translate(4)" fill="white"/>
<rect x="4" width="1920" height="1024" fill="url(#paint0_linear_202_9513)"/>
<path fill-rule="evenodd" clip-rule="evenodd" d="M1087.53 502C1279.92 359.594 1507.02 443.296 1680.33 575.741V1027H365.335C319.144 1005.12 283.876 979.37 257 951.386V574.454C295.07 574.287 344.682 579.87 402.025 586.324C591.853 607.688 866.413 638.588 1087.53 502Z" fill="#BCD796"/>
<rect x="4" y="930" width="1920" height="150" fill="#465E27"/>
<rect x="4" y="819" width="1920" height="111" fill="#6D873D"/>
<rect x="4" y="720" width="1920" height="99" fill="#91AD64"/>
<rect x="4" y="572" width="1920" height="148" fill="#BCD796"/>
<rect x="4" y="174" width="1920" height="108" fill="#6D873D"/>
<rect x="4" y="282" width="1920" height="54" fill="#99C25E"/>
<rect x="4" width="1920" height="174" fill="#465E27"/>
<path fill-rule="evenodd" clip-rule="evenodd" d="M1680.33 720.384C1635.76 704.228 1558.75 701.288 1463.57 697.655C1296.03 691.259 1072.22 682.716 870.145 596.144C704.395 512.729 449.975 598.958 238.331 721.097V1024H1434.75C1546.66 966.108 1632.6 902.771 1680.33 848.6V720.384Z" fill="#91AD64"/>
<path d="M1376 9H1448.16L1597 989H1448.16L1376 9Z" fill="#7F8F65"/>
<path fill-rule="evenodd" clip-rule="evenodd" d="M1678.33 -1H238.331V196.547V265V335.453C266.935 357.251 308.786 371 355.412 371C378.763 371 400.918 367.551 420.81 361.37C438.712 406.088 499.422 439 571.562 439C652.256 439 718.65 397.819 726.824 344.999L726.901 344.999C727.157 345 727.414 345 727.67 345C727.913 345 728.157 345 728.4 344.999C728.894 344.997 729.388 344.994 729.881 344.99C742.937 423.833 812.246 484 895.787 484C965.841 484 1025.89 441.691 1051.15 381.539C1071.32 393.728 1096.78 401 1124.45 401C1179.91 401 1226.48 371.779 1239.44 332.303C1271.06 375.585 1324.29 404 1384.63 404C1444.51 404 1497.39 376.015 1529.09 333.286C1551.85 342.014 1578.2 347 1606.28 347C1632.67 347 1657.53 342.595 1679.33 334.818V149.182C1679 149.063 1678.66 148.945 1678.33 148.828V-1Z" fill="#99C25E"/>
<path d="M470.831 3H521.331L470.831 1026H364.331L470.831 3Z" fill="#7F8F65"/>
<path d="M290 3H362L434 1014H290V3Z" fill="#52623E"/>
<path d="M1316.33 3H1366.83L1316.33 1026H1169.33L1316.33 3Z" fill="#B3C098"/>
<path d="M741.331 3H828.814L862.331 1026H741.331V3Z" fill="#B3C098"/>
<path d="M531 3H599.571L741 1026H599.571L531 3Z" fill="#52623E"/>
<path d="M1592.86 6H1641.33V1008H1506.33L1592.86 6Z" fill="#52623E"/>
<path fill-rule="evenodd" clip-rule="evenodd" d="M1678.33 947H1680.33V818.867C1643.69 771.829 1575.51 754.1 1517.22 779.706C1502.95 785.973 1490.44 794.324 1479.91 804.19C1478.55 798.014 1476.39 791.893 1473.4 785.942C1452.66 744.635 1399.46 727.127 1354.59 746.837C1309.73 766.544 1290.17 815.997 1310.9 857.301L1310.88 857.311C1291.41 865.862 1275.67 879.301 1264.04 896.045C1261.98 890.986 1259.7 885.943 1257.19 880.933C1215.7 798.321 1126.2 755.888 1057.29 786.156C1021.32 801.956 998.068 834.443 989.961 873.642C941.563 810.016 851.25 785.394 774.505 819.105C751.381 829.261 731.83 843.686 716.383 860.948C707.857 820.978 672.345 791 629.831 791C589.95 791 556.23 817.379 545.168 853.64C524.795 834.23 496.62 822.221 465.493 822.221C452.08 822.221 439.215 824.451 427.286 828.542C428.631 823.244 429.343 817.716 429.343 812.034C429.343 772.651 395.142 740.726 352.951 740.726C310.761 740.726 276.559 772.651 276.559 812.034C263.174 812.034 250.313 814.759 238.331 819.777V924V947V1025H1678.33V947Z" fill="#6D873D"/>
<path d="M1063.33 0H1163.83L1202.33 1023H1063.33V0Z" fill="#52623E"/>
<g filter="url(#filter1_f_202_9513)">
<path d="M1521 4H1584L797 989H575L1521 4Z" fill="#FFFBE4" fill-opacity="0.25"/>
</g>
<g filter="url(#filter2_f_202_9513)">
<path d="M1592.28 4H1666L1416.5 989H1069L1592.28 4Z" fill="#FFFCEA" fill-opacity="0.5"/>
</g>
<g filter="url(#filter3_f_202_9513)">
<path d="M1395.5 4H1486L537.5 989H332.5L1395.5 4Z" fill="#FFFBE5" fill-opacity="0.5"/>
</g>
<path fill-rule="evenodd" clip-rule="evenodd" d="M235.001 279.685C274.9 326.749 362.841 337.324 444.344 301.585C470.383 290.167 492.945 275.258 511.159 258.34C511.59 259.287 512.042 260.23 512.514 261.169C533.296 302.476 586.581 319.984 631.53 300.274C642.635 295.404 652.193 288.718 659.976 280.788C694.711 342.381 774.657 368.519 841.715 339.114C867.335 327.88 887.473 310.117 900.984 288.869C954.08 315.138 1030.55 315.126 1102.48 283.586C1106.52 281.813 1110.49 279.966 1114.39 278.05C1114.55 278.381 1114.71 278.712 1114.88 279.043C1131.07 311.262 1174.14 324.238 1211.08 308.027C1228.19 300.521 1240.98 288.072 1248.17 273.669C1276.76 313.43 1328.58 340 1387.75 340C1427.38 340 1463.71 328.086 1491.97 308.274C1501.01 338.276 1530.57 360.274 1565.66 360.274C1607.92 360.274 1642.18 328.348 1642.18 288.966C1659.21 288.966 1675.39 284.571 1690 276.663V154.819H1682.04V154H1679.33V-1H235V177L235.001 279.685Z" fill="#6D873D"/>
<path d="M914.007 5H1023.27L1009.83 254.5L1025.33 243L1051.83 184L1033.33 251L1022.33 265.5L1042.83 261L1098.83 216.5L1051.83 273.5L1030.33 278L1013.83 293L1023.27 418L1042.83 427.5L1072.33 424.5L1047.83 384L1092.83 424.5L1154.33 358L1115.83 418L1154.33 411.5L1200.83 373.5L1164.33 418L1115.83 436L1072.33 442.75L1027.33 459L1033.83 552H1053.33L1115.83 513L1076.33 555.46L1122.83 566L1228.83 504L1122.83 582.5L1078.33 578.75L1033.83 589.5V684.333H1099.83L1180.83 641L1146.33 678.5L1228.83 671.5L1283.33 678.5L1381.83 641L1316.83 690L1348.33 709.5L1417.33 714.803L1330.33 722.5L1238.83 697.82L1122.83 714.803L1039.83 753V833.187L1077.33 841L1139.83 833.187L1165.83 753L1173.33 820.7L1238.83 792.5L1180.83 841L1113.83 858L1039.83 903.5L1051.33 1024H854.513L865.503 891.63L807.057 839.681L653.699 783L829.036 820.7L861.007 833.187L878.99 820.7L769.092 714.803L653.699 697.82L511.331 692.326L633.717 678.339L588.759 649.867L682.172 684.333H738.62L665.688 608.408L779.582 684.333L829.036 635.583L812.052 714.803L878.99 755.264L888.831 649.867L779.582 575L711.331 566L626.331 582.5L697.331 552L653.699 513L716.331 546L744.331 552L704.152 482.5L769.092 546L798.831 555.46L861.007 489.5L819.331 575L898.472 608.408L911.831 489.5L866.831 454.5L844.831 445L796.331 438.5L738.62 436L653.699 381.5L744.331 424.5H787.831L744.331 381.5L812.052 424.5H846.331L835.331 363L875.831 430.5L915.331 449.5L920.831 358L812.052 304L747.831 306.5L677.331 273.5L749.831 298.5L809.831 290.5L769.092 216.5L812.052 267L796.331 179.5L835.331 290.5L866.831 304L864.331 261L898.472 315L925.831 310L914.007 5Z" fill="#262E1C"/>
<path fill-rule="evenodd" clip-rule="evenodd" d="M256.949 524.044L321.231 895.83L325.616 552.708L344.495 916.868L372.231 625.431L365.81 837.241L398.98 672.983L362.664 940.985L362.476 947.201L361.828 947.161L355.754 991.986L335.258 988.531L343.403 948.198L320.556 948.644L320.99 914.701L299.092 917.763L256.949 524.044ZM1515.76 871.037L1454.82 603.816L1509.11 940.962L1508.2 950.481L1510.31 950.614L1501.73 993.112L1522.23 996.566L1522.6 993.81L1542.87 989.871L1530.49 935.592L1565.45 677.564L1532.28 841.821L1538.7 630.012L1515.76 871.037ZM1638.65 974.449L1657.53 610.288L1662.29 983H1618.37L1584.16 730.564L1617.33 894.821L1610.91 683.012L1638.65 974.449ZM670.826 956.395L608.936 684.209L656.041 983.599L674.007 980.18L673.253 999.678L668.038 1007.53L672.852 1010.02L672.787 1011.71L676.046 1011.68L680.978 1014.23L682.469 1011.61L689.402 1011.55L689.072 1000.05L695.964 987.972L696.39 988.142L698.028 984.356L787.627 827.379L725.375 921.158L781.208 792.131L688.27 972.051L682.335 765.048L677.365 893.447L655.096 732.783L670.826 956.395ZM460.048 866.467L464.896 706.567L447.993 884.172L433.635 758.505L439.855 884.857L405.234 728.674L441.092 960.338L436.984 980.681L444.636 981.971L445.584 1001.24L461.223 999.958L460.151 990.577L472.964 968.13L473.39 968.3L475.028 964.514L564.627 807.537L502.375 901.316L558.207 772.289L468.677 945.612L544.553 717.111L460.94 920.683L485.089 742.465L460.048 866.467ZM457.34 963.735L460.324 964.664L457.651 968.691L457.347 966.03L457.828 965.939L457.34 963.735ZM1376.94 650.209L1438.83 922.395L1423.1 698.783L1445.36 859.447L1450.33 731.048L1456.27 938.14L1456.93 942.854L1456.41 942.911L1457.4 977.548L1440.79 977.708L1442.01 946.18L1424.04 949.599L1376.94 650.209ZM1245.55 679.111L1169.68 907.612L1259.21 734.289L1203.37 863.316L1265.63 769.537L1176.03 926.514L1174.39 930.3L1173.96 930.13L1158.98 956.386L1146.04 949.691L1161.32 926.664L1145.85 921.848L1245.55 679.111ZM1141.05 861.467L1145.9 701.567L1128.99 879.172L1114.63 753.505L1120.85 879.857L1086.23 723.674L1122.09 955.338L1117.98 975.681L1125.64 976.971L1126.58 996.235L1142.22 994.958L1138.35 961.03L1138.83 960.939L1137.81 956.356L1137.18 950.815L1138.04 944.449L1138.53 944.48L1138.67 939.786L1166.09 737.465L1141.05 861.467Z" fill="#5B7639"/>
<path fill-rule="evenodd" clip-rule="evenodd" d="M1263.52 852.223C1275.55 852.223 1286.99 854.774 1297.35 859.368C1301.99 884.538 1326.54 903.741 1356.12 903.741C1384.76 903.741 1408.68 885.751 1414.4 861.772C1420.92 858.88 1428.13 857.274 1435.72 857.274C1449.24 857.274 1461.59 862.381 1470.96 870.787C1485.72 846.331 1512.39 830 1542.84 830C1577.35 830 1607 850.969 1619.96 880.966C1622.25 880.664 1624.57 880.508 1626.94 880.508C1654.89 880.508 1677.8 902.322 1679.85 930H1708V1049H1672V1029H1117.16H863.197H570.011H429.255H261V1062H205V930H238.336C238.876 883.605 276.318 846.162 322.428 846.162C347.949 846.162 370.814 857.632 386.237 875.742C394.868 865.08 407.928 858.284 422.544 858.284C447.55 858.284 468 878.175 469.509 903.286C478.861 899.665 489.018 897.68 499.633 897.68C518.115 897.68 535.204 903.695 549.082 913.891C561.051 896.185 581.295 884.548 604.254 884.548C629.802 884.548 651.99 898.959 663.152 920.106C662.934 921.861 662.822 923.648 662.822 925.459C662.822 950.286 683.889 970.411 709.877 970.411C735.864 970.411 756.931 950.286 756.931 925.459C756.931 923.124 756.745 920.83 756.385 918.59C760.226 917.471 764.27 916.873 768.444 916.873C787.197 916.873 803.303 928.935 810.289 946.167H1108.42C1116.05 925.956 1133.54 911.822 1153.89 911.822C1163.86 911.822 1173.15 915.214 1180.92 921.05C1188.34 881.849 1222.5 852.223 1263.52 852.223Z" fill="#465E27"/>
<path fill-rule="evenodd" clip-rule="evenodd" d="M479.363 464.109L478.353 461L477.343 464.109H474.073L476.718 466.031L475.708 469.141L478.353 467.219L480.998 469.141L479.988 466.031L482.633 464.109H479.363ZM485.302 495.382L484.853 494L484.404 495.382H482.951L484.127 496.236L483.678 497.618L484.853 496.764L486.029 497.618L485.58 496.236L486.755 495.382H485.302ZM436.853 497L437.527 499.073H439.706L437.943 500.354L438.617 502.427L436.853 501.146L435.09 502.427L435.763 500.354L434 499.073H436.18L436.853 497ZM465.853 519L466.527 521.073H468.706L466.943 522.354L467.617 524.427L465.853 523.146L464.09 524.427L464.763 522.354L463 521.073H465.18L465.853 519ZM486.853 568L487.302 569.382H488.755L487.58 570.236L488.029 571.618L486.853 570.764L485.678 571.618L486.127 570.236L484.951 569.382H486.404L486.853 568Z" fill="#FFF7CA"/>
<path fill-rule="evenodd" clip-rule="evenodd" d="M362.363 356.509L361.353 359.618L360.343 356.509H357.073L359.718 354.587L358.708 351.478L361.353 353.399L363.998 351.478L362.988 354.587L365.633 356.509H362.363ZM368.302 325.236L367.853 326.618L367.404 325.236H365.951L367.127 324.382L366.678 323L367.853 323.854L369.029 323L368.58 324.382L369.755 325.236H368.302ZM319.853 323.618L320.527 321.545H322.706L320.943 320.264L321.617 318.191L319.853 319.472L318.09 318.191L318.763 320.264L317 321.545H319.18L319.853 323.618ZM348.853 301.618L349.527 299.545H351.706L349.943 298.264L350.617 296.191L348.853 297.472L347.09 296.191L347.763 298.264L346 299.545H348.18L348.853 301.618ZM369.853 252.618L370.302 251.236H371.755L370.58 250.382L371.029 249L369.853 249.854L368.678 249L369.127 250.382L367.951 251.236H369.404L369.853 252.618Z" fill="#FFF7CA"/>
<path fill-rule="evenodd" clip-rule="evenodd" d="M1350.36 518.509L1349.35 521.618L1348.34 518.509H1345.07L1347.72 516.587L1346.71 513.478L1349.35 515.399L1352 513.478L1350.99 516.587L1353.63 518.509H1350.36ZM1356.3 487.236L1355.85 488.618L1355.4 487.236H1353.95L1355.13 486.382L1354.68 485L1355.85 485.854L1357.03 485L1356.58 486.382L1357.76 487.236H1356.3ZM1307.85 485.618L1308.53 483.545H1310.71L1308.94 482.264L1309.62 480.191L1307.85 481.472L1306.09 480.191L1306.76 482.264L1305 483.545H1307.18L1307.85 485.618ZM1336.85 463.618L1337.53 461.545H1339.71L1337.94 460.264L1338.62 458.191L1336.85 459.472L1335.09 458.191L1335.76 460.264L1334 461.545H1336.18L1336.85 463.618ZM1357.85 414.618L1358.3 413.236H1359.76L1358.58 412.382L1359.03 411L1357.85 411.854L1356.68 411L1357.13 412.382L1355.95 413.236H1357.4L1357.85 414.618Z" fill="#FFF7CA"/>
<path fill-rule="evenodd" clip-rule="evenodd" d="M1642.36 735.509L1641.35 738.618L1640.34 735.509H1637.07L1639.72 733.587L1638.71 730.478L1641.35 732.399L1644 730.478L1642.99 733.587L1645.63 735.509H1642.36ZM1648.3 704.236L1647.85 705.618L1647.4 704.236H1645.95L1647.13 703.382L1646.68 702L1647.85 702.854L1649.03 702L1648.58 703.382L1649.76 704.236H1648.3ZM1599.85 702.618L1600.53 700.545H1602.71L1600.94 699.264L1601.62 697.191L1599.85 698.472L1598.09 697.191L1598.76 699.264L1597 700.545H1599.18L1599.85 702.618ZM1628.85 680.618L1629.53 678.545H1631.71L1629.94 677.264L1630.62 675.191L1628.85 676.472L1627.09 675.191L1627.76 677.264L1626 678.545H1628.18L1628.85 680.618ZM1649.85 631.618L1650.3 630.236H1651.76L1650.58 629.382L1651.03 628L1649.85 628.854L1648.68 628L1649.13 629.382L1647.95 630.236H1649.4L1649.85 631.618Z" fill="#FFF7CA"/>
<path fill-rule="evenodd" clip-rule="evenodd" d="M739.363 405.109L738.353 402L737.343 405.109H734.073L736.718 407.031L735.708 410.141L738.353 408.219L740.998 410.141L739.988 407.031L742.633 405.109H739.363ZM745.302 436.382L744.853 435L744.404 436.382H742.951L744.127 437.236L743.678 438.618L744.853 437.764L746.029 438.618L745.58 437.236L746.755 436.382H745.302ZM696.853 438L697.527 440.073H699.706L697.943 441.354L698.617 443.427L696.853 442.146L695.09 443.427L695.763 441.354L694 440.073H696.18L696.853 438ZM725.853 460L726.527 462.073H728.706L726.943 463.354L727.617 465.427L725.853 464.146L724.09 465.427L724.763 463.354L723 462.073H725.18L725.853 460ZM746.853 509L747.302 510.382H748.755L747.58 511.236L748.029 512.618L746.853 511.764L745.678 512.618L746.127 511.236L744.951 510.382H746.404L746.853 509Z" fill="#FFF7CA"/>
<path fill-rule="evenodd" clip-rule="evenodd" d="M730.392 190.109L731.402 187L732.413 190.109H735.682L733.037 192.031L734.047 195.141L731.402 193.219L728.757 195.141L729.767 192.031L727.122 190.109H730.392ZM724.453 221.382L724.902 220L725.351 221.382H726.804L725.629 222.236L726.078 223.618L724.902 222.764L723.727 223.618L724.176 222.236L723 221.382H724.453ZM772.902 223L772.229 225.073H770.049L771.812 226.354L771.139 228.427L772.902 227.146L774.666 228.427L773.992 226.354L775.755 225.073H773.576L772.902 223ZM743.902 245L743.229 247.073H741.049L742.812 248.354L742.139 250.427L743.902 249.146L745.666 250.427L744.992 248.354L746.755 247.073H744.576L743.902 245ZM722.902 294L722.453 295.382H721L722.176 296.236L721.727 297.618L722.902 296.764L724.078 297.618L723.629 296.236L724.804 295.382H723.351L722.902 294Z" fill="#FFF7CA"/>
<path fill-rule="evenodd" clip-rule="evenodd" d="M1156.39 320.109L1157.4 317L1158.41 320.109H1161.68L1159.04 322.031L1160.05 325.141L1157.4 323.219L1154.76 325.141L1155.77 322.031L1153.12 320.109H1156.39ZM1150.45 351.382L1150.9 350L1151.35 351.382H1152.8L1151.63 352.236L1152.08 353.618L1150.9 352.764L1149.73 353.618L1150.18 352.236L1149 351.382H1150.45ZM1198.9 353L1198.23 355.073H1196.05L1197.81 356.354L1197.14 358.427L1198.9 357.146L1200.67 358.427L1199.99 356.354L1201.76 355.073H1199.58L1198.9 353ZM1169.9 375L1169.23 377.073H1167.05L1168.81 378.354L1168.14 380.427L1169.9 379.146L1171.67 380.427L1170.99 378.354L1172.76 377.073H1170.58L1169.9 375ZM1148.9 424L1148.45 425.382H1147L1148.18 426.236L1147.73 427.618L1148.9 426.764L1150.08 427.618L1149.63 426.236L1150.8 425.382H1149.35L1148.9 424Z" fill="#FFF7CA"/>
<path fill-rule="evenodd" clip-rule="evenodd" d="M887.392 584.109L888.402 581L889.412 584.109H892.682L890.037 586.031L891.047 589.141L888.402 587.219L885.757 589.141L886.767 586.031L884.122 584.109H887.392ZM881.453 615.382L881.902 614L882.351 615.382H883.804L882.629 616.236L883.078 617.618L881.902 616.764L880.727 617.618L881.176 616.236L880 615.382H881.453ZM929.902 617L929.229 619.073H927.049L928.812 620.354L928.139 622.427L929.902 621.146L931.665 622.427L930.992 620.354L932.755 619.073H930.576L929.902 617ZM900.902 639L900.229 641.073H898.049L899.812 642.354L899.139 644.427L900.902 643.146L902.665 644.427L901.992 642.354L903.755 641.073H901.576L900.902 639ZM879.902 688L879.453 689.382H878L879.176 690.236L878.727 691.618L879.902 690.764L881.078 691.618L880.629 690.236L881.804 689.382H880.351L879.902 688Z" fill="#FFF7CA"/>
<path fill-rule="evenodd" clip-rule="evenodd" d="M1475.39 264.109L1476.4 261L1477.41 264.109H1480.68L1478.04 266.031L1479.05 269.141L1476.4 267.219L1473.76 269.141L1474.77 266.031L1472.12 264.109H1475.39ZM1469.45 295.382L1469.9 294L1470.35 295.382H1471.8L1470.63 296.236L1471.08 297.618L1469.9 296.764L1468.73 297.618L1469.18 296.236L1468 295.382H1469.45ZM1517.9 297L1517.23 299.073H1515.05L1516.81 300.354L1516.14 302.427L1517.9 301.146L1519.67 302.427L1518.99 300.354L1520.76 299.073H1518.58L1517.9 297ZM1488.9 319L1488.23 321.073H1486.05L1487.81 322.354L1487.14 324.427L1488.9 323.146L1490.67 324.427L1489.99 322.354L1491.76 321.073H1489.58L1488.9 319ZM1467.9 368L1467.45 369.382H1466L1467.18 370.236L1466.73 371.618L1467.9 370.764L1469.08 371.618L1468.63 370.236L1469.8 369.382H1468.35L1467.9 368Z" fill="#FFF7CA"/>
<path fill-rule="evenodd" clip-rule="evenodd" d="M982.363 428.509L981.353 431.618L980.343 428.509H977.073L979.718 426.587L978.708 423.478L981.353 425.399L983.998 423.478L982.988 426.587L985.633 428.509H982.363ZM988.302 397.236L987.853 398.618L987.404 397.236H985.951L987.127 396.382L986.678 395L987.853 395.854L989.029 395L988.58 396.382L989.755 397.236H988.302ZM939.853 395.618L940.527 393.545H942.706L940.943 392.264L941.617 390.191L939.853 391.472L938.09 390.191L938.763 392.264L937 393.545H939.18L939.853 395.618ZM968.853 373.618L969.527 371.545H971.706L969.943 370.264L970.617 368.191L968.853 369.472L967.09 368.191L967.763 370.264L966 371.545H968.18L968.853 373.618ZM989.853 324.618L990.302 323.236H991.755L990.58 322.382L991.029 321L989.853 321.854L988.678 321L989.127 322.382L987.951 323.236H989.404L989.853 324.618Z" fill="#FFF7CA"/>
<path fill-rule="evenodd" clip-rule="evenodd" d="M364.363 584.109L363.353 581L362.343 584.109H359.073L361.718 586.031L360.708 589.141L363.353 587.219L365.998 589.141L364.988 586.031L367.633 584.109H364.363ZM370.302 615.382L369.853 614L369.404 615.382H367.951L369.127 616.236L368.678 617.618L369.853 616.764L371.029 617.618L370.58 616.236L371.755 615.382H370.302ZM321.853 617L322.527 619.073H324.706L322.943 620.354L323.617 622.427L321.853 621.146L320.09 622.427L320.763 620.354L319 619.073H321.18L321.853 617ZM350.853 639L351.527 641.073H353.706L351.943 642.354L352.617 644.427L350.853 643.146L349.09 644.427L349.763 642.354L348 641.073H350.18L350.853 639ZM371.853 688L372.302 689.382H373.755L372.58 690.236L373.029 691.618L371.853 690.764L370.678 691.618L371.127 690.236L369.951 689.382H371.404L371.853 688Z" fill="#FFF7CA"/>
<path fill-rule="evenodd" clip-rule="evenodd" d="M1123.39 619.109L1124.4 616L1125.41 619.109H1128.68L1126.04 621.031L1127.05 624.141L1124.4 622.219L1121.76 624.141L1122.77 621.031L1120.12 619.109H1123.39ZM1117.45 650.382L1117.9 649L1118.35 650.382H1119.8L1118.63 651.236L1119.08 652.618L1117.9 651.764L1116.73 652.618L1117.18 651.236L1116 650.382H1117.45ZM1165.9 652L1165.23 654.073H1163.05L1164.81 655.354L1164.14 657.427L1165.9 656.146L1167.67 657.427L1166.99 655.354L1168.76 654.073H1166.58L1165.9 652ZM1136.9 674L1136.23 676.073H1134.05L1135.81 677.354L1135.14 679.427L1136.9 678.146L1138.67 679.427L1137.99 677.354L1139.76 676.073H1137.58L1136.9 674ZM1115.9 723L1115.45 724.382H1114L1115.18 725.236L1114.73 726.618L1115.9 725.764L1117.08 726.618L1116.63 725.236L1117.8 724.382H1116.35L1115.9 723Z" fill="#FFF7CA"/>
<path fill-rule="evenodd" clip-rule="evenodd" d="M227 0H510.406H843.455H966.054H1395.92H1652H1679.33H1699V174H1679.33H1679.31C1679.32 174.499 1679.33 174.999 1679.33 175.5C1679.33 212.227 1647.5 242 1608.23 242C1580.02 242 1555.65 226.639 1544.16 204.373C1532.71 207.379 1520.52 209 1507.88 209C1490.88 209 1474.7 206.07 1460.05 200.787C1456.17 234.086 1426.01 260 1389.37 260C1357.01 260 1329.71 239.788 1321.09 212.127C1311.09 217.151 1299.65 220 1287.5 220C1260.99 220 1237.87 206.431 1225.64 186.313C1208.39 231.511 1160.64 264 1104.45 264C1050.06 264 1003.59 233.565 985.013 190.63C963.053 206.501 935.139 216 904.754 216C868.701 216 836.127 202.626 812.85 181.103C800.164 207.585 772.025 226 739.35 226C734.932 226 730.596 225.663 726.371 225.015C718.407 259.326 686.151 285 647.571 285C606.774 285 573.05 256.293 567.642 219.022C545.749 238.782 515.535 251 482.166 251C462.961 251 444.801 246.953 428.671 239.75C429.359 242.9 429.721 246.16 429.721 249.5C429.721 276.286 406.466 298 377.78 298C349.094 298 325.839 276.286 325.839 249.5L325.839 249.424L325.839 249.329C320.465 250.424 314.899 251 309.198 251C265.324 251 229.479 216.918 227.123 174H227V169.5V0Z" fill="#465E27"/>
</g>
<defs>
<filter id="filter0_d_202_9513" x="0" y="0" width="1928" height="1088" filterUnits="userSpaceOnUse" color-interpolation-filters="sRGB">
<feFlood flood-opacity="0" result="BackgroundImageFix"/>
<feColorMatrix in="SourceAlpha" type="matrix" values="0 0 0 0 0 0 0 0 0 0 0 0 0 0 0 0 0 0 127 0" result="hardAlpha"/>
<feOffset dy="4"/>
<feGaussianBlur stdDeviation="2"/>
<feComposite in2="hardAlpha" operator="out"/>
<feColorMatrix type="matrix" values="0 0 0 0 0 0 0 0 0 0 0 0 0 0 0 0 0 0 0.25 0"/>
<feBlend mode="normal" in2="BackgroundImageFix" result="effect1_dropShadow_202_9513"/>
<feBlend mode="normal" in="SourceGraphic" in2="effect1_dropShadow_202_9513" result="shape"/>
</filter>
<filter id="filter1_f_202_9513" x="565" y="-6" width="1029" height="1005" filterUnits="userSpaceOnUse" color-interpolation-filters="sRGB">
<feFlood flood-opacity="0" result="BackgroundImageFix"/>
<feBlend mode="normal" in="SourceGraphic" in2="BackgroundImageFix" result="shape"/>
<feGaussianBlur stdDeviation="5" result="effect1_foregroundBlur_202_9513"/>
</filter>
<filter id="filter2_f_202_9513" x="1059" y="-6" width="617" height="1005" filterUnits="userSpaceOnUse" color-interpolation-filters="sRGB">
<feFlood flood-opacity="0" result="BackgroundImageFix"/>
<feBlend mode="normal" in="SourceGraphic" in2="BackgroundImageFix" result="shape"/>
<feGaussianBlur stdDeviation="5" result="effect1_foregroundBlur_202_9513"/>
</filter>
<filter id="filter3_f_202_9513" x="322.5" y="-6" width="1173.5" height="1005" filterUnits="userSpaceOnUse" color-interpolation-filters="sRGB">
<feFlood flood-opacity="0" result="BackgroundImageFix"/>
<feBlend mode="normal" in="SourceGraphic" in2="BackgroundImageFix" result="shape"/>
<feGaussianBlur stdDeviation="5" result="effect1_foregroundBlur_202_9513"/>
</filter>
<linearGradient id="paint0_linear_202_9513" x1="964" y1="0" x2="964" y2="1024" gradientUnits="userSpaceOnUse">
<stop offset="0.267221" stop-color="#DDE1AD"/>
<stop offset="0.781101" stop-color="#DDE1AD" stop-opacity="0"/>
</linearGradient>
<clipPath id="clip0_202_9513">
<rect width="1920" height="1080" fill="white" transform="translate(4)"/>
</clipPath>
</defs>
</svg>
