<svg width="1928" height="1088" viewBox="0 0 1928 1088" fill="none" xmlns="http://www.w3.org/2000/svg">
<g clip-path="url(#clip0_202_9220)" filter="url(#filter0_d_202_9220)">
<rect width="1920" height="1080" transform="translate(4)" fill="white"/>
<rect x="4" width="1920" height="1024" fill="url(#paint0_linear_202_9220)"/>
<path fill-rule="evenodd" clip-rule="evenodd" d="M1087.53 502C1279.92 359.594 1507.02 443.296 1680.33 575.741V1027H365.335C319.144 1005.12 283.876 979.37 257 951.386V574.453C295.07 574.287 344.682 579.87 402.025 586.324C591.853 607.688 866.413 638.588 1087.53 502Z" fill="#BCD796"/>
<rect x="4" y="930" width="1920" height="150" fill="#465E27"/>
<rect x="4" y="819" width="1920" height="111" fill="#6D873D"/>
<rect x="4" y="720" width="1920" height="99" fill="#91AD64"/>
<rect x="4" y="572" width="1920" height="148" fill="#BCD796"/>
<rect x="4" y="174" width="1920" height="108" fill="#6D873D"/>
<rect x="4" y="282" width="1920" height="54" fill="#99C25E"/>
<path fill-rule="evenodd" clip-rule="evenodd" d="M1680.33 720.384C1635.76 704.228 1558.75 701.288 1463.57 697.655C1296.03 691.259 1072.22 682.716 870.145 596.144C704.395 512.729 449.975 598.958 238.331 721.097V1024H1434.75C1546.66 966.108 1632.6 902.771 1680.33 848.6V720.384Z" fill="#91AD64"/>
<path d="M1376 9H1448.16L1597 989H1448.16L1376 9Z" fill="#7F8F65"/>
<path fill-rule="evenodd" clip-rule="evenodd" d="M1678.33 -1H238.331V196.547V265V335.453C266.935 357.251 308.786 371 355.412 371C378.763 371 400.918 367.551 420.81 361.37C438.712 406.088 499.422 439 571.562 439C652.256 439 718.65 397.819 726.824 344.999L726.901 344.999C727.157 345 727.414 345 727.67 345C727.913 345 728.157 345 728.4 344.999C728.894 344.997 729.388 344.994 729.881 344.99C742.937 423.833 812.246 484 895.787 484C965.841 484 1025.89 441.691 1051.15 381.539C1071.32 393.728 1096.78 401 1124.45 401C1179.91 401 1226.48 371.779 1239.44 332.303C1271.06 375.585 1324.29 404 1384.63 404C1444.51 404 1497.39 376.015 1529.09 333.286C1551.85 342.014 1578.2 347 1606.28 347C1632.67 347 1657.53 342.595 1679.33 334.818V149.182C1679 149.063 1678.66 148.945 1678.33 148.828V-1Z" fill="#99C25E"/>
<path d="M470.831 3H521.331L470.831 1026H364.331L470.831 3Z" fill="#7F8F65"/>
<path d="M290 3H362L434 1014H290V3Z" fill="#52623E"/>
<path d="M1316.33 3H1366.83L1316.33 1026H1169.33L1316.33 3Z" fill="#B3C098"/>
<path d="M741.331 3H828.814L862.331 1026H741.331V3Z" fill="#B3C098"/>
<path d="M531 3H599.571L741 1026H599.571L531 3Z" fill="#52623E"/>
<path d="M1592.86 6H1641.33V1008H1506.33L1592.86 6Z" fill="#52623E"/>
<path fill-rule="evenodd" clip-rule="evenodd" d="M1678.33 947H1680.33V818.867C1643.69 771.829 1575.51 754.1 1517.22 779.706C1502.95 785.973 1490.44 794.324 1479.91 804.19C1478.55 798.014 1476.39 791.893 1473.4 785.942C1452.66 744.635 1399.46 727.127 1354.59 746.837C1309.73 766.544 1290.17 815.997 1310.9 857.301L1310.88 857.311C1291.41 865.862 1275.67 879.301 1264.04 896.045C1261.98 890.986 1259.7 885.943 1257.19 880.933C1215.7 798.321 1126.2 755.888 1057.29 786.156C1021.32 801.956 998.068 834.443 989.961 873.642C941.563 810.016 851.25 785.394 774.505 819.105C751.381 829.261 731.83 843.686 716.383 860.948C707.857 820.978 672.345 791 629.831 791C589.95 791 556.23 817.379 545.168 853.64C524.795 834.23 496.62 822.221 465.493 822.221C452.08 822.221 439.215 824.451 427.286 828.542C428.631 823.244 429.343 817.716 429.343 812.034C429.343 772.651 395.142 740.726 352.951 740.726C310.761 740.726 276.559 772.651 276.559 812.034C263.174 812.034 250.313 814.759 238.331 819.777V924V947V1025H1678.33V947Z" fill="#6D873D"/>
<path d="M1063.33 0H1163.83L1202.33 1023H1063.33V0Z" fill="#52623E"/>
<g filter="url(#filter1_f_202_9220)">
<path d="M1521 4H1584L959.5 989H662L1521 4Z" fill="#FFFBE4" fill-opacity="0.25"/>
</g>
<g filter="url(#filter2_f_202_9220)">
<path d="M1592.28 4H1666L1323.23 989H1092L1592.28 4Z" fill="#FFFCEA" fill-opacity="0.5"/>
</g>
<g filter="url(#filter3_f_202_9220)">
<path d="M1395.5 4H1486L475 989H282L1395.5 4Z" fill="#FFFBE5" fill-opacity="0.5"/>
</g>
<path fill-rule="evenodd" clip-rule="evenodd" d="M235.001 279.685C274.9 326.749 362.841 337.324 444.344 301.585C470.383 290.167 492.945 275.258 511.159 258.34C511.59 259.287 512.042 260.23 512.514 261.169C533.296 302.476 586.581 319.984 631.53 300.274C642.635 295.404 652.193 288.718 659.976 280.788C694.711 342.381 774.657 368.519 841.715 339.114C867.335 327.88 887.473 310.117 900.984 288.869C954.08 315.138 1030.55 315.126 1102.48 283.586C1106.52 281.813 1110.49 279.966 1114.39 278.05C1114.55 278.381 1114.71 278.712 1114.88 279.043C1131.07 311.262 1174.14 324.238 1211.08 308.027C1228.19 300.521 1240.98 288.072 1248.17 273.669C1276.76 313.43 1328.58 340 1387.75 340C1427.38 340 1463.71 328.086 1491.97 308.274C1501.01 338.276 1530.57 360.274 1565.66 360.274C1607.92 360.274 1642.18 328.348 1642.18 288.966C1658.43 288.966 1673.92 284.961 1688 277.719V154.819H1682.04V154H1679.33V-1H235V177L235.001 279.685Z" fill="#6D873D"/>
<path d="M914.007 5H1023.27L1009.83 254.5L1025.33 243L1051.83 184L1033.33 251L1022.33 265.5L1042.83 261L1098.83 216.5L1051.83 273.5L1030.33 278L1013.83 293L1023.27 418L1042.83 427.5L1072.33 424.5L1047.83 384L1092.83 424.5L1154.33 358L1115.83 418L1154.33 411.5L1200.83 373.5L1164.33 418L1115.83 436L1072.33 442.75L1027.33 459L1033.83 552H1053.33L1115.83 513L1076.33 555.46L1122.83 566L1228.83 504L1122.83 582.5L1078.33 578.75L1033.83 589.5V684.333H1099.83L1180.83 641L1146.33 678.5L1228.83 671.5L1283.33 678.5L1381.83 641L1316.83 690L1348.33 709.5L1417.33 714.803L1330.33 722.5L1238.83 697.82L1122.83 714.803L1039.83 753V833.187L1077.33 841L1139.83 833.187L1165.83 753L1173.33 820.7L1238.83 792.5L1180.83 841L1113.83 858L1039.83 903.5L1051.33 1024H854.513L865.503 891.63L807.057 839.681L653.699 783L829.036 820.7L861.007 833.187L878.99 820.7L769.092 714.803L653.699 697.82L511.331 692.326L633.717 678.339L588.759 649.867L682.172 684.333H738.62L665.688 608.408L779.582 684.333L829.036 635.583L812.052 714.803L878.99 755.264L888.831 649.867L779.582 575L711.331 566L626.331 582.5L697.331 552L653.699 513L716.331 546L744.331 552L704.152 482.5L769.092 546L798.831 555.46L861.007 489.5L819.331 575L898.472 608.408L911.831 489.5L866.831 454.5L844.831 445L796.331 438.5L738.62 436L653.699 381.5L744.331 424.5H787.831L744.331 381.5L812.052 424.5H846.331L835.331 363L875.831 430.5L915.331 449.5L920.831 358L812.052 304L747.831 306.5L677.331 273.5L749.831 298.5L809.831 290.5L769.092 216.5L812.052 267L796.331 179.5L835.331 290.5L866.831 304L864.331 261L898.472 315L925.831 310L914.007 5Z" fill="#262E1C"/>
<path fill-rule="evenodd" clip-rule="evenodd" d="M256.949 524.044L321.231 895.83L325.616 552.708L344.495 916.868L372.231 625.431L365.81 837.241L398.98 672.983L362.664 940.985L362.476 947.201L361.828 947.161L355.754 991.986L335.258 988.531L343.403 948.198L320.556 948.644L320.99 914.701L299.092 917.763L256.949 524.044ZM1515.76 871.037L1454.82 603.816L1509.11 940.962L1508.2 950.481L1510.31 950.614L1501.73 993.112L1522.23 996.566L1522.6 993.81L1542.87 989.871L1530.49 935.592L1565.45 677.564L1532.28 841.821L1538.7 630.012L1515.76 871.037ZM1638.65 974.449L1657.53 610.288L1662.29 983H1618.37L1584.16 730.564L1617.33 894.821L1610.91 683.012L1638.65 974.449ZM670.826 956.395L608.936 684.209L656.041 983.599L674.007 980.18L673.253 999.678L668.038 1007.53L672.852 1010.02L672.787 1011.71L676.046 1011.68L680.978 1014.23L682.469 1011.61L689.402 1011.55L689.072 1000.05L695.964 987.972L696.39 988.142L698.028 984.356L787.627 827.379L725.375 921.158L781.208 792.131L688.27 972.051L682.335 765.048L677.365 893.447L655.096 732.783L670.826 956.395ZM460.048 866.467L464.896 706.567L447.993 884.172L433.635 758.505L439.855 884.857L405.234 728.674L441.092 960.338L436.984 980.681L444.636 981.971L445.584 1001.24L461.223 999.958L460.151 990.577L472.964 968.13L473.39 968.3L475.028 964.514L564.627 807.536L502.375 901.316L558.207 772.289L468.677 945.612L544.553 717.111L460.94 920.683L485.089 742.465L460.048 866.467ZM457.34 963.735L460.324 964.664L457.651 968.691L457.346 966.03L457.828 965.939L457.34 963.735ZM1376.94 650.209L1438.83 922.395L1423.1 698.783L1445.36 859.447L1450.33 731.048L1456.27 938.14L1456.93 942.854L1456.41 942.911L1457.4 977.548L1440.79 977.708L1442.01 946.18L1424.04 949.599L1376.94 650.209ZM1245.55 679.111L1169.68 907.612L1259.21 734.289L1203.37 863.316L1265.63 769.536L1176.03 926.514L1174.39 930.3L1173.96 930.13L1158.98 956.386L1146.04 949.692L1161.32 926.664L1145.85 921.848L1245.55 679.111ZM1141.05 861.467L1145.9 701.567L1128.99 879.172L1114.63 753.505L1120.85 879.857L1086.23 723.674L1122.09 955.338L1117.98 975.681L1125.64 976.971L1126.58 996.235L1142.22 994.958L1138.35 961.03L1138.83 960.939L1137.81 956.356L1137.18 950.815L1138.04 944.449L1138.53 944.48L1138.67 939.786L1166.09 737.465L1141.05 861.467Z" fill="#5B7639"/>
<path fill-rule="evenodd" clip-rule="evenodd" d="M1263.52 852.223C1275.55 852.223 1286.99 854.774 1297.35 859.368C1301.99 884.538 1326.54 903.741 1356.12 903.741C1384.76 903.741 1408.68 885.751 1414.4 861.772C1420.92 858.88 1428.13 857.274 1435.72 857.274C1449.24 857.274 1461.59 862.381 1470.96 870.787C1485.72 846.331 1512.39 830 1542.84 830C1577.35 830 1607 850.969 1619.96 880.966C1622.25 880.664 1624.57 880.508 1626.94 880.508C1654.89 880.508 1677.8 902.322 1679.85 930H1708V1049H1672V1029H1117.16H863.197H570.011H429.255H261V1062H205V930H238.336C238.876 883.605 276.318 846.162 322.428 846.162C347.949 846.162 370.814 857.632 386.237 875.742C394.868 865.08 407.928 858.284 422.544 858.284C447.55 858.284 468 878.174 469.509 903.286C478.861 899.665 489.018 897.68 499.633 897.68C518.115 897.68 535.204 903.695 549.082 913.891C561.051 896.185 581.295 884.548 604.254 884.548C629.802 884.548 651.99 898.959 663.152 920.106C662.934 921.861 662.822 923.648 662.822 925.459C662.822 950.286 683.889 970.411 709.877 970.411C735.864 970.411 756.931 950.286 756.931 925.459C756.931 923.124 756.745 920.83 756.385 918.59C760.226 917.471 764.27 916.873 768.444 916.873C787.197 916.873 803.303 928.935 810.289 946.167H1108.42C1116.05 925.956 1133.54 911.822 1153.89 911.822C1163.86 911.822 1173.15 915.214 1180.92 921.05C1188.34 881.849 1222.5 852.223 1263.52 852.223Z" fill="#465E27"/>
<path fill-rule="evenodd" clip-rule="evenodd" d="M424.363 335.109L423.353 332L422.343 335.109H419.073L421.718 337.031L420.708 340.141L423.353 338.219L425.998 340.141L424.988 337.031L427.633 335.109H424.363ZM430.302 366.382L429.853 365L429.404 366.382H427.951L429.127 367.236L428.678 368.618L429.853 367.764L431.029 368.618L430.58 367.236L431.755 366.382H430.302ZM381.853 368L382.527 370.073H384.706L382.943 371.354L383.617 373.427L381.853 372.146L380.09 373.427L380.763 371.354L379 370.073H381.18L381.853 368ZM410.853 390L411.527 392.073H413.706L411.943 393.354L412.617 395.427L410.853 394.146L409.09 395.427L409.763 393.354L408 392.073H410.18L410.853 390ZM431.853 439L432.302 440.382H433.755L432.58 441.236L433.029 442.618L431.853 441.764L430.678 442.618L431.127 441.236L429.951 440.382H431.404L431.853 439Z" fill="#FFF7CA"/>
<path fill-rule="evenodd" clip-rule="evenodd" d="M604.363 294.509L603.353 297.618L602.343 294.509H599.073L601.718 292.587L600.708 289.478L603.353 291.399L605.998 289.478L604.988 292.587L607.633 294.509H604.363ZM610.302 263.236L609.853 264.618L609.404 263.236H607.951L609.127 262.382L608.678 261L609.853 261.854L611.029 261L610.58 262.382L611.755 263.236H610.302ZM561.853 261.618L562.527 259.545H564.706L562.943 258.264L563.617 256.191L561.853 257.472L560.09 256.191L560.763 258.264L559 259.545H561.18L561.853 261.618ZM590.853 239.618L591.527 237.545H593.706L591.943 236.264L592.617 234.191L590.853 235.472L589.09 234.191L589.763 236.264L588 237.545H590.18L590.853 239.618ZM611.853 190.618L612.302 189.236H613.755L612.58 188.382L613.029 187L611.853 187.854L610.678 187L611.127 188.382L609.951 189.236H611.404L611.853 190.618Z" fill="#FFF7CA"/>
<path fill-rule="evenodd" clip-rule="evenodd" d="M1283.36 439.509L1282.35 442.618L1281.34 439.509H1278.07L1280.72 437.587L1279.71 434.478L1282.35 436.399L1285 434.478L1283.99 437.587L1286.63 439.509H1283.36ZM1289.3 408.236L1288.85 409.618L1288.4 408.236H1286.95L1288.13 407.382L1287.68 406L1288.85 406.854L1290.03 406L1289.58 407.382L1290.76 408.236H1289.3ZM1240.85 406.618L1241.53 404.545H1243.71L1241.94 403.264L1242.62 401.191L1240.85 402.472L1239.09 401.191L1239.76 403.264L1238 404.545H1240.18L1240.85 406.618ZM1269.85 384.618L1270.53 382.545H1272.71L1270.94 381.264L1271.62 379.191L1269.85 380.472L1268.09 379.191L1268.76 381.264L1267 382.545H1269.18L1269.85 384.618ZM1290.85 335.618L1291.3 334.236H1292.76L1291.58 333.382L1292.03 332L1290.85 332.854L1289.68 332L1290.13 333.382L1288.95 334.236H1290.4L1290.85 335.618Z" fill="#FFF7CA"/>
<path fill-rule="evenodd" clip-rule="evenodd" d="M1536.36 781.509L1535.35 784.618L1534.34 781.509H1531.07L1533.72 779.587L1532.71 776.478L1535.35 778.399L1538 776.478L1536.99 779.587L1539.63 781.509H1536.36ZM1542.3 750.236L1541.85 751.618L1541.4 750.236H1539.95L1541.13 749.382L1540.68 748L1541.85 748.854L1543.03 748L1542.58 749.382L1543.76 750.236H1542.3ZM1493.85 748.618L1494.53 746.545H1496.71L1494.94 745.264L1495.62 743.191L1493.85 744.472L1492.09 743.191L1492.76 745.264L1491 746.545H1493.18L1493.85 748.618ZM1522.85 726.618L1523.53 724.545H1525.71L1523.94 723.264L1524.62 721.191L1522.85 722.472L1521.09 721.191L1521.76 723.264L1520 724.545H1522.18L1522.85 726.618ZM1543.85 677.618L1544.3 676.236H1545.76L1544.58 675.382L1545.03 674L1543.85 674.854L1542.68 674L1543.13 675.382L1541.95 676.236H1543.4L1543.85 677.618Z" fill="#FFF7CA"/>
<path fill-rule="evenodd" clip-rule="evenodd" d="M885.363 335.109L884.353 332L883.343 335.109H880.073L882.718 337.031L881.708 340.141L884.353 338.219L886.998 340.141L885.988 337.031L888.633 335.109H885.363ZM891.302 366.382L890.853 365L890.404 366.382H888.951L890.127 367.236L889.678 368.618L890.853 367.764L892.029 368.618L891.58 367.236L892.755 366.382H891.302ZM842.853 368L843.527 370.073H845.706L843.943 371.354L844.617 373.427L842.853 372.146L841.09 373.427L841.763 371.354L840 370.073H842.18L842.853 368ZM871.853 390L872.527 392.073H874.706L872.943 393.354L873.617 395.427L871.853 394.146L870.09 395.427L870.763 393.354L869 392.073H871.18L871.853 390ZM892.853 439L893.302 440.382H894.755L893.58 441.236L894.029 442.618L892.853 441.764L891.678 442.618L892.127 441.236L890.951 440.382H892.404L892.853 439Z" fill="#FFF7CA"/>
<path fill-rule="evenodd" clip-rule="evenodd" d="M911.392 195.109L912.402 192L913.413 195.109H916.682L914.037 197.031L915.047 200.141L912.402 198.219L909.757 200.141L910.767 197.031L908.122 195.109H911.392ZM905.453 226.382L905.902 225L906.351 226.382H907.804L906.629 227.236L907.078 228.618L905.902 227.764L904.727 228.618L905.176 227.236L904 226.382H905.453ZM953.902 228L953.229 230.073H951.049L952.812 231.354L952.139 233.427L953.902 232.146L955.666 233.427L954.992 231.354L956.755 230.073H954.576L953.902 228ZM924.902 250L924.229 252.073H922.049L923.812 253.354L923.139 255.427L924.902 254.146L926.666 255.427L925.992 253.354L927.755 252.073H925.576L924.902 250ZM903.902 299L903.453 300.382H902L903.176 301.236L902.727 302.618L903.902 301.764L905.078 302.618L904.629 301.236L905.804 300.382H904.351L903.902 299Z" fill="#FFF7CA"/>
<path fill-rule="evenodd" clip-rule="evenodd" d="M1142.39 399.109L1143.4 396L1144.41 399.109H1147.68L1145.04 401.031L1146.05 404.141L1143.4 402.219L1140.76 404.141L1141.77 401.031L1139.12 399.109H1142.39ZM1136.45 430.382L1136.9 429L1137.35 430.382H1138.8L1137.63 431.236L1138.08 432.618L1136.9 431.764L1135.73 432.618L1136.18 431.236L1135 430.382H1136.45ZM1184.9 432L1184.23 434.073H1182.05L1183.81 435.354L1183.14 437.427L1184.9 436.146L1186.67 437.427L1185.99 435.354L1187.76 434.073H1185.58L1184.9 432ZM1155.9 454L1155.23 456.073H1153.05L1154.81 457.354L1154.14 459.427L1155.9 458.146L1157.67 459.427L1156.99 457.354L1158.76 456.073H1156.58L1155.9 454ZM1134.9 503L1134.45 504.382H1133L1134.18 505.236L1133.73 506.618L1134.9 505.764L1136.08 506.618L1135.63 505.236L1136.8 504.382H1135.35L1134.9 503Z" fill="#FFF7CA"/>
<path fill-rule="evenodd" clip-rule="evenodd" d="M978.392 641.109L979.402 638L980.413 641.109H983.682L981.037 643.031L982.047 646.141L979.402 644.219L976.757 646.141L977.767 643.031L975.122 641.109H978.392ZM972.453 672.382L972.902 671L973.351 672.382H974.804L973.629 673.236L974.078 674.618L972.902 673.764L971.727 674.618L972.176 673.236L971 672.382H972.453ZM1020.9 674L1020.23 676.073H1018.05L1019.81 677.354L1019.14 679.427L1020.9 678.146L1022.67 679.427L1021.99 677.354L1023.76 676.073H1021.58L1020.9 674ZM991.902 696L991.229 698.073H989.049L990.812 699.354L990.139 701.427L991.902 700.146L993.666 701.427L992.992 699.354L994.755 698.073H992.576L991.902 696ZM970.902 745L970.453 746.382H969L970.176 747.236L969.727 748.618L970.902 747.764L972.078 748.618L971.629 747.236L972.804 746.382H971.351L970.902 745Z" fill="#FFF7CA"/>
<path fill-rule="evenodd" clip-rule="evenodd" d="M1528.39 181.109L1529.4 178L1530.41 181.109H1533.68L1531.04 183.031L1532.05 186.141L1529.4 184.219L1526.76 186.141L1527.77 183.031L1525.12 181.109H1528.39ZM1522.45 212.382L1522.9 211L1523.35 212.382H1524.8L1523.63 213.236L1524.08 214.618L1522.9 213.764L1521.73 214.618L1522.18 213.236L1521 212.382H1522.45ZM1570.9 214L1570.23 216.073H1568.05L1569.81 217.354L1569.14 219.427L1570.9 218.146L1572.67 219.427L1571.99 217.354L1573.76 216.073H1571.58L1570.9 214ZM1541.9 236L1541.23 238.073H1539.05L1540.81 239.354L1540.14 241.427L1541.9 240.146L1543.67 241.427L1542.99 239.354L1544.76 238.073H1542.58L1541.9 236ZM1520.9 285L1520.45 286.382H1519L1520.18 287.236L1519.73 288.618L1520.9 287.764L1522.08 288.618L1521.63 287.236L1522.8 286.382H1521.35L1520.9 285Z" fill="#FFF7CA"/>
<path fill-rule="evenodd" clip-rule="evenodd" d="M844.363 328.509L843.353 331.618L842.343 328.509H839.073L841.718 326.587L840.708 323.478L843.353 325.399L845.998 323.478L844.988 326.587L847.633 328.509H844.363ZM850.302 297.236L849.853 298.618L849.404 297.236H847.951L849.127 296.382L848.678 295L849.853 295.854L851.029 295L850.58 296.382L851.755 297.236H850.302ZM801.853 295.618L802.527 293.545H804.706L802.943 292.264L803.617 290.191L801.853 291.472L800.09 290.191L800.763 292.264L799 293.545H801.18L801.853 295.618ZM830.853 273.618L831.527 271.545H833.706L831.943 270.264L832.617 268.191L830.853 269.472L829.09 268.191L829.763 270.264L828 271.545H830.18L830.853 273.618ZM851.853 224.618L852.302 223.236H853.755L852.58 222.382L853.029 221L851.853 221.854L850.678 221L851.127 222.382L849.951 223.236H851.404L851.853 224.618Z" fill="#FFF7CA"/>
<path fill-rule="evenodd" clip-rule="evenodd" d="M362.363 718.109L361.353 715L360.343 718.109H357.073L359.718 720.031L358.708 723.141L361.353 721.219L363.998 723.141L362.988 720.031L365.633 718.109H362.363ZM368.302 749.382L367.853 748L367.404 749.382H365.951L367.127 750.236L366.678 751.618L367.853 750.764L369.029 751.618L368.58 750.236L369.755 749.382H368.302ZM319.853 751L320.527 753.073H322.706L320.943 754.354L321.617 756.427L319.853 755.146L318.09 756.427L318.763 754.354L317 753.073H319.18L319.853 751ZM348.853 773L349.527 775.073H351.706L349.943 776.354L350.617 778.427L348.853 777.146L347.09 778.427L347.763 776.354L346 775.073H348.18L348.853 773ZM369.853 822L370.302 823.382H371.755L370.58 824.236L371.029 825.618L369.853 824.764L368.678 825.618L369.127 824.236L367.951 823.382H369.404L369.853 822Z" fill="#FFF7CA"/>
<path fill-rule="evenodd" clip-rule="evenodd" d="M1051.39 502.109L1052.4 499L1053.41 502.109H1056.68L1054.04 504.031L1055.05 507.141L1052.4 505.219L1049.76 507.141L1050.77 504.031L1048.12 502.109H1051.39ZM1045.45 533.382L1045.9 532L1046.35 533.382H1047.8L1046.63 534.236L1047.08 535.618L1045.9 534.764L1044.73 535.618L1045.18 534.236L1044 533.382H1045.45ZM1093.9 535L1093.23 537.073H1091.05L1092.81 538.354L1092.14 540.427L1093.9 539.146L1095.67 540.427L1094.99 538.354L1096.76 537.073H1094.58L1093.9 535ZM1064.9 557L1064.23 559.073H1062.05L1063.81 560.354L1063.14 562.427L1064.9 561.146L1066.67 562.427L1065.99 560.354L1067.76 559.073H1065.58L1064.9 557ZM1043.9 606L1043.45 607.382H1042L1043.18 608.236L1042.73 609.618L1043.9 608.764L1045.08 609.618L1044.63 608.236L1045.8 607.382H1044.35L1043.9 606Z" fill="#FFF7CA"/>
<rect x="4" width="1920" height="174" fill="#465E27"/>
<path fill-rule="evenodd" clip-rule="evenodd" d="M227 0H510.406H843.455H966.054H1395.92H1652H1679.33H1699V174H1679.33H1679.31C1679.32 174.499 1679.33 174.999 1679.33 175.5C1679.33 212.227 1647.5 242 1608.23 242C1580.02 242 1555.65 226.639 1544.16 204.373C1532.71 207.379 1520.52 209 1507.88 209C1490.88 209 1474.7 206.07 1460.05 200.787C1456.17 234.086 1426.01 260 1389.37 260C1357.01 260 1329.71 239.788 1321.09 212.127C1311.09 217.151 1299.65 220 1287.5 220C1260.99 220 1237.87 206.431 1225.64 186.313C1208.39 231.511 1160.64 264 1104.45 264C1050.06 264 1003.59 233.565 985.013 190.63C963.053 206.501 935.139 216 904.754 216C868.701 216 836.127 202.626 812.85 181.103C800.164 207.585 772.025 226 739.35 226C734.932 226 730.596 225.663 726.371 225.015C718.407 259.326 686.151 285 647.571 285C606.774 285 573.05 256.293 567.642 219.022C545.749 238.782 515.535 251 482.166 251C462.961 251 444.801 246.953 428.671 239.75C429.359 242.9 429.721 246.16 429.721 249.5C429.721 276.286 406.466 298 377.78 298C349.094 298 325.839 276.286 325.839 249.5L325.839 249.424L325.839 249.329C320.465 250.424 314.899 251 309.198 251C265.324 251 229.479 216.918 227.123 174H227V169.5V0Z" fill="#465E27"/>
</g>
<defs>
<filter id="filter0_d_202_9220" x="0" y="0" width="1928" height="1088" filterUnits="userSpaceOnUse" color-interpolation-filters="sRGB">
<feFlood flood-opacity="0" result="BackgroundImageFix"/>
<feColorMatrix in="SourceAlpha" type="matrix" values="0 0 0 0 0 0 0 0 0 0 0 0 0 0 0 0 0 0 127 0" result="hardAlpha"/>
<feOffset dy="4"/>
<feGaussianBlur stdDeviation="2"/>
<feComposite in2="hardAlpha" operator="out"/>
<feColorMatrix type="matrix" values="0 0 0 0 0 0 0 0 0 0 0 0 0 0 0 0 0 0 0.25 0"/>
<feBlend mode="normal" in2="BackgroundImageFix" result="effect1_dropShadow_202_9220"/>
<feBlend mode="normal" in="SourceGraphic" in2="effect1_dropShadow_202_9220" result="shape"/>
</filter>
<filter id="filter1_f_202_9220" x="652" y="-6" width="942" height="1005" filterUnits="userSpaceOnUse" color-interpolation-filters="sRGB">
<feFlood flood-opacity="0" result="BackgroundImageFix"/>
<feBlend mode="normal" in="SourceGraphic" in2="BackgroundImageFix" result="shape"/>
<feGaussianBlur stdDeviation="5" result="effect1_foregroundBlur_202_9220"/>
</filter>
<filter id="filter2_f_202_9220" x="1082" y="-6" width="594" height="1005" filterUnits="userSpaceOnUse" color-interpolation-filters="sRGB">
<feFlood flood-opacity="0" result="BackgroundImageFix"/>
<feBlend mode="normal" in="SourceGraphic" in2="BackgroundImageFix" result="shape"/>
<feGaussianBlur stdDeviation="5" result="effect1_foregroundBlur_202_9220"/>
</filter>
<filter id="filter3_f_202_9220" x="272" y="-6" width="1224" height="1005" filterUnits="userSpaceOnUse" color-interpolation-filters="sRGB">
<feFlood flood-opacity="0" result="BackgroundImageFix"/>
<feBlend mode="normal" in="SourceGraphic" in2="BackgroundImageFix" result="shape"/>
<feGaussianBlur stdDeviation="5" result="effect1_foregroundBlur_202_9220"/>
</filter>
<linearGradient id="paint0_linear_202_9220" x1="964" y1="0" x2="964" y2="1024" gradientUnits="userSpaceOnUse">
<stop offset="0.267221" stop-color="#DDE1AD"/>
<stop offset="0.781101" stop-color="#DDE1AD" stop-opacity="0"/>
</linearGradient>
<clipPath id="clip0_202_9220">
<rect width="1920" height="1080" fill="white" transform="translate(4)"/>
</clipPath>
</defs>
</svg>
