<svg width="195" height="181" viewBox="0 0 195 181" fill="none" xmlns="http://www.w3.org/2000/svg">
<path d="M58.5594 29.7123C68.5124 32.1217 77.8627 28.78 79.4439 22.2483C81.0251 15.7166 74.2383 8.46846 64.2853 6.05904C54.3323 3.64963 45.7542 8.72715 38.6585 18.3368C51.1846 20.7729 48.6064 27.3029 58.5594 29.7123Z" fill="#2B1A08"/>
<path d="M133.916 29.7123C123.963 32.1217 114.612 28.78 113.031 22.2483C111.45 15.7166 118.237 8.46846 128.19 6.05904C138.143 3.64963 146.721 8.72715 153.817 18.3368C141.29 20.7729 143.869 27.3029 133.916 29.7123Z" fill="#2B1A08"/>
<path fill-rule="evenodd" clip-rule="evenodd" d="M150.891 107.085C149.445 87.0418 138.451 69.92 126.334 68.8427C115.925 67.9173 108.073 79.1324 106.982 95.0184C105.109 98.0655 102.255 100.499 100.047 102.382C97.8131 104.287 96.2401 105.629 97.0127 106.471C98.3625 107.944 102.218 106.463 106.997 102.997L107.01 103.184C107.068 103.989 107.141 104.789 107.23 105.583C106.544 113.288 100.299 118.36 95.9097 121.925C92.838 124.42 90.6752 126.177 91.9626 127.581C94.5225 130.373 101.385 127.946 109.26 122.054C110.89 132.235 103.442 138.107 98.4058 142.077C95.295 144.529 93.1047 146.256 94.5428 147.824C97.6328 151.194 105.7 148.419 114.478 141.587C118.532 153.871 110.019 160.582 104.453 164.97C101.342 167.422 99.1518 169.149 100.59 170.717C104.656 175.153 117.343 168.945 128.926 156.851C135.274 150.224 139.973 143.205 142.255 137.484C148.319 131.771 151.856 120.469 150.891 107.085Z" fill="#473111"/>
<path fill-rule="evenodd" clip-rule="evenodd" d="M46.5642 107.085C48.0094 87.0418 59.004 69.92 71.1213 68.8427C81.5303 67.9173 89.3818 79.1324 90.4726 95.0184C92.3456 98.0655 95.1996 100.499 97.4077 102.382C99.6417 104.287 101.215 105.629 100.442 106.471C99.0923 107.944 95.237 106.463 90.458 102.997L90.4448 103.184C90.3868 103.989 90.3134 104.789 90.2251 105.583C90.9106 113.288 97.1558 118.36 101.545 121.925C104.617 124.42 106.78 126.177 105.492 127.581C102.932 130.373 96.07 127.946 88.1944 122.054C86.5646 132.235 94.013 138.107 99.0491 142.077C102.16 144.529 104.35 146.256 102.912 147.824C99.8221 151.194 91.7551 148.419 82.9769 141.587C78.9229 153.871 87.4358 160.582 93.002 164.97C96.1127 167.422 98.303 169.149 96.8649 170.717C92.7984 175.153 80.1118 168.945 68.5286 156.851C62.181 150.224 57.482 143.205 55.2001 137.484C49.1359 131.771 45.5992 120.469 46.5642 107.085Z" fill="#473111"/>
<ellipse cx="97.5" cy="48.3784" rx="53.5" ry="41.5" fill="#2B1A08"/>
<ellipse cx="98" cy="115.378" rx="62" ry="62.5" fill="#2B1A08"/>
<path d="M104 81.8784L95.3397 57.8784L112.66 57.8784L104 81.8784Z" fill="#EEA15F"/>
<path d="M132.466 56.0324C131.048 70.5922 114.024 76.7894 103.422 63.2003C94.5364 79.776 72.2115 81.792 63.9236 62.379C57.0544 37.0674 90.4298 29.0036 100.36 17.8784C121.267 26.0169 132.989 39.606 132.466 56.0324Z" fill="#F7E8B7"/>
<ellipse cx="114.5" cy="49.8784" rx="3.5" ry="5" fill="#2B1A08"/>
<ellipse cx="114.5" cy="49.8784" rx="3.5" ry="5" fill="#2B1A08"/>
<ellipse cx="114.5" cy="49.8784" rx="3.5" ry="5" fill="#2B1A08"/>
<ellipse cx="86.5" cy="49.8784" rx="3.5" ry="5" fill="#2B1A08"/>
<ellipse cx="86.5" cy="49.8784" rx="3.5" ry="5" fill="#2B1A08"/>
<ellipse cx="86.5" cy="49.8784" rx="3.5" ry="5" fill="#2B1A08"/>
<path d="M57.0215 113.235C58.8386 94.2909 80.644 86.2275 94.2246 103.909C105.605 82.3415 134.201 79.7185 144.817 104.977C153.616 137.911 110.866 148.403 98.1457 162.878C71.3671 152.289 56.352 134.608 57.0215 113.235Z" fill="#F7E8B7"/>
<path fill-rule="evenodd" clip-rule="evenodd" d="M94.6648 180.505C94.9508 179.764 95.1029 178.987 95.1029 178.187C95.1029 173.067 88.8767 168.916 81.1963 168.916C73.516 168.916 67.2898 173.067 67.2898 178.187C67.2898 178.987 67.4419 179.764 67.7279 180.505H94.6648Z" fill="#EEA15F"/>
<path fill-rule="evenodd" clip-rule="evenodd" d="M111.438 180.505C111.152 179.764 111 178.987 111 178.187C111 173.067 117.226 168.916 124.907 168.916C132.587 168.916 138.813 173.067 138.813 178.187C138.813 178.987 138.661 179.764 138.375 180.505H111.438Z" fill="#EEA15F"/>
<ellipse cx="114.5" cy="45" rx="6.5" ry="8" fill="#F7E8B7"/>
<ellipse cx="86.5" cy="45" rx="6.5" ry="8" fill="#F7E8B7"/>
</svg>
