<svg width="195" height="180" viewBox="0 0 195 180" fill="none" xmlns="http://www.w3.org/2000/svg">
<path d="M58.5594 29.0861C68.5124 31.4955 77.8627 28.1538 79.4439 21.6221C81.0251 15.0905 74.2383 7.8423 64.2853 5.43288C54.3323 3.02347 45.7542 8.10099 38.6585 17.7106C51.1846 20.1467 48.6064 26.6767 58.5594 29.0861Z" fill="#2B1A08"/>
<path d="M142.411 24.8139C137.291 33.6824 128.422 38.1478 122.602 34.7877C116.782 31.4275 116.215 21.5142 121.335 12.6456C126.455 3.77712 136.048 1.06801 147.901 2.55821C141.025 13.3083 147.531 15.9453 142.411 24.8139Z" fill="#2B1A08"/>
<path fill-rule="evenodd" clip-rule="evenodd" d="M32.3258 96.8241C40.0031 78.2528 55.8258 65.459 67.6667 68.2484C77.8384 70.6445 81.7631 83.7602 77.801 99.1827C78.6203 102.664 80.5637 105.872 82.0674 108.355C83.5887 110.866 84.6598 112.634 83.6614 113.19C81.917 114.163 78.7232 111.545 75.2771 106.752L75.2057 106.925C74.8975 107.671 74.5762 108.407 74.2425 109.133C72.4693 116.663 76.8017 123.442 79.8467 128.207C81.9776 131.541 83.478 133.889 81.8142 134.817C78.5059 136.662 72.7556 132.199 67.1333 124.129C62.3834 133.281 67.6065 141.197 71.138 146.55C73.3193 149.856 74.8553 152.184 72.9967 153.221C69.0035 155.448 62.219 150.276 56.0361 141.029C48.3232 151.414 54.2928 160.462 58.196 166.379C60.3773 169.685 61.9133 172.013 60.0547 173.049C54.7994 175.98 44.7099 166.096 37.5192 150.973C33.5787 142.686 31.3264 134.545 30.9603 128.396C27.001 121.066 27.1994 109.225 32.3258 96.8241Z" fill="#473111"/>
<path fill-rule="evenodd" clip-rule="evenodd" d="M163.635 96.8241C155.957 78.2528 140.135 65.459 128.294 68.2484C118.122 70.6445 114.197 83.7602 118.159 99.1827C117.34 102.664 115.397 105.872 113.893 108.355C112.372 110.866 111.301 112.634 112.299 113.19C114.043 114.163 117.237 111.545 120.683 106.752L120.755 106.925C121.063 107.671 121.384 108.407 121.718 109.133C123.491 116.663 119.159 123.442 116.114 128.207C113.983 131.541 112.482 133.889 114.146 134.817C117.455 136.662 123.205 132.199 128.827 124.129C133.577 133.281 128.354 141.197 124.822 146.55C122.641 149.856 121.105 152.184 122.964 153.221C126.957 155.448 133.741 150.276 139.924 141.029C147.637 151.414 141.668 160.462 137.764 166.379C135.583 169.685 134.047 172.013 135.906 173.049C141.161 175.98 151.251 166.096 158.441 150.973C162.382 142.686 164.634 134.545 165 128.396C168.959 121.066 168.761 109.225 163.635 96.8241Z" fill="#473111"/>
<ellipse cx="97.5" cy="47.7523" rx="53.5" ry="41.5" fill="#2B1A08"/>
<ellipse cx="98" cy="114.752" rx="62" ry="62.5" fill="#2B1A08"/>
<path d="M104 81.2523L95.3397 57.2523L112.66 57.2523L104 81.2523Z" fill="#EEA15F"/>
<path d="M132.466 55.4063C131.048 69.966 114.024 76.1632 103.422 62.5741C94.5364 79.1498 72.2115 81.1658 63.9236 61.7528C57.0544 36.4413 90.4298 28.3774 100.36 17.2523C121.267 25.3908 132.989 38.9799 132.466 55.4063Z" fill="#F7E8B7"/>
<ellipse cx="114.5" cy="49.2523" rx="3.5" ry="5" fill="#2B1A08"/>
<ellipse cx="114.5" cy="49.2523" rx="3.5" ry="5" fill="#2B1A08"/>
<ellipse cx="114.5" cy="49.2523" rx="3.5" ry="5" fill="#2B1A08"/>
<ellipse cx="86.5" cy="49.2523" rx="3.5" ry="5" fill="#2B1A08"/>
<ellipse cx="86.5" cy="49.2523" rx="3.5" ry="5" fill="#2B1A08"/>
<ellipse cx="86.5" cy="49.2523" rx="3.5" ry="5" fill="#2B1A08"/>
<path d="M57.0215 112.609C58.8386 93.6647 80.644 85.6013 94.2246 103.283C105.605 81.7154 134.201 79.0923 144.817 104.351C153.616 137.285 110.866 147.777 98.1457 162.252C71.3671 151.663 56.352 133.982 57.0215 112.609Z" fill="#F7E8B7"/>
<path fill-rule="evenodd" clip-rule="evenodd" d="M93.1601 177C94.3941 175.615 95.1028 173.998 95.1028 172.271C95.1028 167.151 88.8766 163 81.1962 163C73.5158 163 67.2897 167.151 67.2897 172.271C67.2897 173.998 67.9983 175.615 69.2323 177H93.1601Z" fill="#EEA15F"/>
<path fill-rule="evenodd" clip-rule="evenodd" d="M111.438 179.878C111.152 179.138 111 178.361 111 177.561C111 172.44 117.226 168.29 124.907 168.29C132.587 168.29 138.813 172.44 138.813 177.561C138.813 178.361 138.661 179.138 138.375 179.878H111.438Z" fill="#EEA15F"/>
</svg>
