<svg width="195" height="180" viewBox="0 0 195 180" fill="none" xmlns="http://www.w3.org/2000/svg">
<path d="M58.5594 28.8339C68.5124 31.2433 77.8627 27.9015 79.4439 21.3699C81.0251 14.8382 74.2383 7.59004 64.2853 5.18062C54.3323 2.77121 45.7542 7.84873 38.6585 17.4584C51.1846 19.8945 48.6064 26.4245 58.5594 28.8339Z" fill="#2B1A08"/>
<path d="M133.916 28.8339C123.963 31.2433 114.612 27.9015 113.031 21.3699C111.45 14.8382 118.237 7.59004 128.19 5.18062C138.143 2.77121 146.721 7.84873 153.817 17.4584C141.29 19.8945 143.869 26.4245 133.916 28.8339Z" fill="#2B1A08"/>
<path fill-rule="evenodd" clip-rule="evenodd" d="M163.761 91.9098C153.529 74.6144 136.052 64.1929 124.726 68.6327C114.997 72.4466 112.971 85.9862 119.08 100.691C118.762 104.254 117.293 107.705 116.156 110.375C115.006 113.077 114.197 114.979 115.264 115.388C117.129 116.104 119.919 113.06 122.651 107.826L122.746 107.988C123.157 108.682 123.579 109.365 124.013 110.037C126.835 117.239 123.508 124.564 121.169 129.712C119.532 133.315 118.38 135.852 120.158 136.535C123.695 137.892 128.754 132.659 133.176 123.873C139.175 132.259 135.127 140.836 132.39 146.636C130.7 150.218 129.509 152.74 131.496 153.503C135.764 155.141 141.747 149.06 146.557 139.029C155.664 148.217 151.037 158.02 148.012 164.429C146.322 168.011 145.131 170.534 147.118 171.296C152.736 173.452 161.322 162.238 166.296 146.248C169.022 137.486 170.098 129.108 169.588 122.969C172.469 115.152 170.594 103.458 163.761 91.9098Z" fill="#473111"/>
<path fill-rule="evenodd" clip-rule="evenodd" d="M30.955 91.9098C41.1875 74.6144 58.664 64.1929 69.99 68.6327C79.7192 72.4466 81.745 85.9862 75.6366 100.691C75.954 104.254 77.4231 107.705 78.5597 110.375C79.7096 113.077 80.5193 114.979 79.452 115.388C77.5873 116.104 74.7969 113.06 72.0652 107.826L71.9699 107.988C71.5591 108.682 71.1367 109.365 70.7034 110.037C67.8807 117.239 71.2083 124.564 73.5471 129.712C75.1837 133.315 76.3362 135.852 74.5576 136.535C71.0211 137.892 65.9616 132.659 61.5402 123.873C55.5409 132.259 59.5889 140.836 62.3259 146.636C64.0165 150.218 65.2069 152.74 63.2202 153.503C58.9516 155.141 52.9689 149.06 48.1593 139.029C39.052 148.217 43.6786 158.02 46.7037 164.429C48.3943 168.011 49.5847 170.534 47.598 171.296C41.9803 173.452 33.3938 162.238 28.4196 146.248C25.6938 137.486 24.6184 129.108 25.1276 122.969C22.2474 115.152 24.1225 103.458 30.955 91.9098Z" fill="#473111"/>
<ellipse cx="97.5" cy="47.5" rx="53.5" ry="41.5" fill="#2B1A08"/>
<ellipse cx="98" cy="114.5" rx="62" ry="62.5" fill="#2B1A08"/>
<path d="M104 81L95.3397 57L112.66 57L104 81Z" fill="#EEA15F"/>
<path d="M132.466 55.154C131.048 69.7137 114.024 75.911 103.422 62.3219C94.5364 78.8976 72.2115 80.9135 63.9236 61.5005C57.0544 36.189 90.4298 28.1251 100.36 17C121.267 25.1385 132.989 38.7276 132.466 55.154Z" fill="#F7E8B7"/>
<ellipse cx="114.5" cy="49" rx="3.5" ry="5" fill="#2B1A08"/>
<ellipse cx="114.5" cy="49" rx="3.5" ry="5" fill="#2B1A08"/>
<ellipse cx="114.5" cy="49" rx="3.5" ry="5" fill="#2B1A08"/>
<ellipse cx="86.5" cy="49" rx="3.5" ry="5" fill="#2B1A08"/>
<ellipse cx="86.5" cy="49" rx="3.5" ry="5" fill="#2B1A08"/>
<ellipse cx="86.5" cy="49" rx="3.5" ry="5" fill="#2B1A08"/>
<path d="M57.0215 112.357C58.8386 93.4125 80.644 85.3491 94.2246 103.03C105.605 81.4631 134.201 78.8401 144.817 104.099C153.616 137.033 110.866 147.525 98.1457 162C71.3671 151.411 56.352 133.73 57.0215 112.357Z" fill="#F7E8B7"/>
<path fill-rule="evenodd" clip-rule="evenodd" d="M94.6648 179.626C94.9508 178.885 95.1029 178.109 95.1029 177.308C95.1029 172.188 88.8767 168.037 81.1963 168.037C73.516 168.037 67.2898 172.188 67.2898 177.308C67.2898 178.109 67.4419 178.885 67.7279 179.626H94.6648Z" fill="#EEA15F"/>
<path fill-rule="evenodd" clip-rule="evenodd" d="M115.609 175C112.97 173.313 111.327 170.938 111.327 168.308C111.327 163.188 117.553 159.037 125.234 159.037C132.914 159.037 139.14 163.188 139.14 168.308C139.14 170.938 137.498 173.313 134.859 175H115.609Z" fill="#EEA15F"/>
</svg>
