<svg width="195" height="180" viewBox="0 0 195 180" fill="none" xmlns="http://www.w3.org/2000/svg">
<path d="M58.5594 29.0861C68.5124 31.4955 77.8627 28.1538 79.4439 21.6221C81.0251 15.0905 74.2383 7.8423 64.2853 5.43288C54.3323 3.02347 45.7542 8.10099 38.6585 17.7106C51.1846 20.1467 48.6064 26.6767 58.5594 29.0861Z" fill="#2B1A08"/>
<path d="M133.916 29.0861C123.963 31.4955 114.612 28.1538 113.031 21.6221C111.45 15.0905 118.237 7.8423 128.19 5.43288C138.143 3.02347 146.721 8.10099 153.817 17.7106C141.29 20.1467 143.869 26.6767 133.916 29.0861Z" fill="#2B1A08"/>
<path fill-rule="evenodd" clip-rule="evenodd" d="M150.891 106.459C149.445 86.4157 138.451 69.2938 126.334 68.2165C115.925 67.2911 108.073 78.5063 106.982 94.3922C105.109 97.4394 102.255 99.8731 100.047 101.756C97.8131 103.661 96.2401 105.003 97.0127 105.845C98.3625 107.317 102.218 105.837 106.997 102.371L107.01 102.558C107.068 103.363 107.141 104.163 107.23 104.957C106.544 112.662 100.299 117.734 95.9097 121.299C92.838 123.794 90.6752 125.551 91.9626 126.955C94.5225 129.747 101.385 127.32 109.26 121.428C110.89 131.609 103.442 137.481 98.4058 141.451C95.295 143.903 93.1047 145.63 94.5428 147.198C97.6328 150.568 105.7 147.793 114.478 140.96C118.532 153.245 110.019 159.956 104.453 164.344C101.342 166.796 99.1518 168.523 100.59 170.091C104.656 174.527 117.343 168.319 128.926 156.225C135.274 149.598 139.973 142.579 142.255 136.858C148.319 131.145 151.856 119.843 150.891 106.459Z" fill="#473111"/>
<path fill-rule="evenodd" clip-rule="evenodd" d="M46.5642 106.459C48.0094 86.4157 59.004 69.2938 71.1213 68.2165C81.5303 67.2911 89.3818 78.5063 90.4726 94.3922C92.3456 97.4394 95.1996 99.8731 97.4077 101.756C99.6417 103.661 101.215 105.003 100.442 105.845C99.0923 107.317 95.237 105.837 90.458 102.371L90.4448 102.558C90.3868 103.363 90.3134 104.163 90.2251 104.957C90.9106 112.662 97.1558 117.734 101.545 121.299C104.617 123.794 106.78 125.551 105.492 126.955C102.932 129.747 96.07 127.32 88.1944 121.428C86.5646 131.609 94.013 137.481 99.0491 141.451C102.16 143.903 104.35 145.63 102.912 147.198C99.8221 150.568 91.7551 147.793 82.9769 140.96C78.9229 153.245 87.4358 159.956 93.002 164.344C96.1127 166.796 98.303 168.523 96.8649 170.091C92.7984 174.527 80.1118 168.319 68.5286 156.225C62.181 149.598 57.482 142.579 55.2001 136.858C49.1359 131.145 45.5992 119.843 46.5642 106.459Z" fill="#473111"/>
<ellipse cx="97.5" cy="47.7523" rx="53.5" ry="41.5" fill="#2B1A08"/>
<ellipse cx="98" cy="114.752" rx="62" ry="62.5" fill="#2B1A08"/>
<path d="M104 81.2523L95.3397 57.2523L112.66 57.2523L104 81.2523Z" fill="#EEA15F"/>
<path d="M132.466 55.4063C131.048 69.966 114.024 76.1632 103.422 62.5741C94.5364 79.1498 72.2115 81.1658 63.9236 61.7528C57.0544 36.4413 90.4298 28.3774 100.36 17.2523C121.267 25.3908 132.989 38.9799 132.466 55.4063Z" fill="#F7E8B7"/>
<ellipse cx="114.5" cy="49.2523" rx="3.5" ry="5" fill="#2B1A08"/>
<ellipse cx="114.5" cy="49.2523" rx="3.5" ry="5" fill="#2B1A08"/>
<ellipse cx="114.5" cy="49.2523" rx="3.5" ry="5" fill="#2B1A08"/>
<ellipse cx="86.5" cy="49.2523" rx="3.5" ry="5" fill="#2B1A08"/>
<ellipse cx="86.5" cy="49.2523" rx="3.5" ry="5" fill="#2B1A08"/>
<ellipse cx="86.5" cy="49.2523" rx="3.5" ry="5" fill="#2B1A08"/>
<path d="M57.0215 112.609C58.8386 93.6647 80.644 85.6013 94.2246 103.283C105.605 81.7154 134.201 79.0923 144.817 104.351C153.616 137.285 110.866 147.777 98.1457 162.252C71.3671 151.663 56.352 133.982 57.0215 112.609Z" fill="#F7E8B7"/>
<path fill-rule="evenodd" clip-rule="evenodd" d="M94.6648 179.878C94.9508 179.138 95.1029 178.361 95.1029 177.561C95.1029 172.44 88.8767 168.29 81.1963 168.29C73.516 168.29 67.2898 172.44 67.2898 177.561C67.2898 178.361 67.4419 179.138 67.7279 179.878H94.6648Z" fill="#EEA15F"/>
<path fill-rule="evenodd" clip-rule="evenodd" d="M111.438 179.878C111.152 179.138 111 178.361 111 177.561C111 172.44 117.226 168.29 124.907 168.29C132.587 168.29 138.813 172.44 138.813 177.561C138.813 178.361 138.661 179.138 138.375 179.878H111.438Z" fill="#EEA15F"/>
</svg>
